<svg width="428" height="550" viewBox="0 0 428 550" fill="none" xmlns="http://www.w3.org/2000/svg">
<path fill-rule="evenodd" clip-rule="evenodd" d="M214 510C127.844 510 58 440.156 58 354C58 267.844 127.844 198 214 198C300.156 198 370 267.844 370 354C370 440.156 300.156 510 214 510Z" fill="#272727" stroke="url(#paint0_angular_108_207)" stroke-width="30"/>
<g filter="url(#filter0_d_108_207)">
<rect x="154" y="175" width="120" height="45" rx="14.5" fill="#BEB93E"/>
</g>
<g filter="url(#filter1_d_108_207)">
<path d="M184.193 185.41H187.627C188.307 185.41 188.812 185.439 189.145 185.498C189.48 185.553 189.779 185.67 190.041 185.85C190.307 186.029 190.527 186.27 190.703 186.57C190.879 186.867 190.967 187.201 190.967 187.572C190.967 187.975 190.857 188.344 190.639 188.68C190.424 189.016 190.131 189.268 189.76 189.436C190.283 189.588 190.686 189.848 190.967 190.215C191.248 190.582 191.389 191.014 191.389 191.51C191.389 191.9 191.297 192.281 191.113 192.652C190.934 193.02 190.686 193.314 190.369 193.537C190.057 193.756 189.67 193.891 189.209 193.941C188.92 193.973 188.223 193.992 187.117 194H184.193V185.41ZM185.928 186.84V188.826H187.064C187.74 188.826 188.16 188.816 188.324 188.797C188.621 188.762 188.854 188.66 189.021 188.492C189.193 188.32 189.279 188.096 189.279 187.818C189.279 187.553 189.205 187.338 189.057 187.174C188.912 187.006 188.695 186.904 188.406 186.869C188.234 186.85 187.74 186.84 186.924 186.84H185.928ZM185.928 190.256V192.553H187.533C188.158 192.553 188.555 192.535 188.723 192.5C188.98 192.453 189.189 192.34 189.35 192.16C189.514 191.977 189.596 191.732 189.596 191.428C189.596 191.17 189.533 190.951 189.408 190.771C189.283 190.592 189.102 190.461 188.863 190.379C188.629 190.297 188.117 190.256 187.328 190.256H185.928ZM192.848 185.41H194.582V190.062C194.582 190.801 194.604 191.279 194.646 191.498C194.721 191.85 194.896 192.133 195.174 192.348C195.455 192.559 195.838 192.664 196.322 192.664C196.814 192.664 197.186 192.564 197.436 192.365C197.686 192.162 197.836 191.914 197.887 191.621C197.938 191.328 197.963 190.842 197.963 190.162V185.41H199.697V189.922C199.697 190.953 199.65 191.682 199.557 192.107C199.463 192.533 199.289 192.893 199.035 193.186C198.785 193.479 198.449 193.713 198.027 193.889C197.605 194.061 197.055 194.146 196.375 194.146C195.555 194.146 194.932 194.053 194.506 193.865C194.084 193.674 193.75 193.428 193.504 193.127C193.258 192.822 193.096 192.504 193.018 192.172C192.904 191.68 192.848 190.953 192.848 189.992V185.41ZM201.092 191.205L202.779 191.041C202.881 191.607 203.086 192.023 203.395 192.289C203.707 192.555 204.127 192.688 204.654 192.688C205.213 192.688 205.633 192.57 205.914 192.336C206.199 192.098 206.342 191.82 206.342 191.504C206.342 191.301 206.281 191.129 206.16 190.988C206.043 190.844 205.836 190.719 205.539 190.613C205.336 190.543 204.873 190.418 204.15 190.238C203.221 190.008 202.568 189.725 202.193 189.389C201.666 188.916 201.402 188.34 201.402 187.66C201.402 187.223 201.525 186.814 201.771 186.436C202.021 186.053 202.379 185.762 202.844 185.562C203.312 185.363 203.877 185.264 204.537 185.264C205.615 185.264 206.426 185.5 206.969 185.973C207.516 186.445 207.803 187.076 207.83 187.865L206.096 187.941C206.021 187.5 205.861 187.184 205.615 186.992C205.373 186.797 205.008 186.699 204.52 186.699C204.016 186.699 203.621 186.803 203.336 187.01C203.152 187.143 203.061 187.32 203.061 187.543C203.061 187.746 203.146 187.92 203.318 188.064C203.537 188.248 204.068 188.439 204.912 188.639C205.756 188.838 206.379 189.045 206.781 189.26C207.188 189.471 207.504 189.762 207.73 190.133C207.961 190.5 208.076 190.955 208.076 191.498C208.076 191.99 207.939 192.451 207.666 192.881C207.393 193.311 207.006 193.631 206.506 193.842C206.006 194.049 205.383 194.152 204.637 194.152C203.551 194.152 202.717 193.902 202.135 193.402C201.553 192.898 201.205 192.166 201.092 191.205ZM209.482 194V185.41H211.217V194H209.482ZM212.893 194V185.41H214.58L218.096 191.146V185.41H219.707V194H217.967L214.504 188.398V194H212.893ZM221.547 194V185.41H227.916V186.863H223.281V188.768H227.594V190.215H223.281V192.553H228.08V194H221.547ZM229.111 191.205L230.799 191.041C230.9 191.607 231.105 192.023 231.414 192.289C231.727 192.555 232.146 192.688 232.674 192.688C233.232 192.688 233.652 192.57 233.934 192.336C234.219 192.098 234.361 191.82 234.361 191.504C234.361 191.301 234.301 191.129 234.18 190.988C234.062 190.844 233.855 190.719 233.559 190.613C233.355 190.543 232.893 190.418 232.17 190.238C231.24 190.008 230.588 189.725 230.213 189.389C229.686 188.916 229.422 188.34 229.422 187.66C229.422 187.223 229.545 186.814 229.791 186.436C230.041 186.053 230.398 185.762 230.863 185.562C231.332 185.363 231.896 185.264 232.557 185.264C233.635 185.264 234.445 185.5 234.988 185.973C235.535 186.445 235.822 187.076 235.85 187.865L234.115 187.941C234.041 187.5 233.881 187.184 233.635 186.992C233.393 186.797 233.027 186.699 232.539 186.699C232.035 186.699 231.641 186.803 231.355 187.01C231.172 187.143 231.08 187.32 231.08 187.543C231.08 187.746 231.166 187.92 231.338 188.064C231.557 188.248 232.088 188.439 232.932 188.639C233.775 188.838 234.398 189.045 234.801 189.26C235.207 189.471 235.523 189.762 235.75 190.133C235.98 190.5 236.096 190.955 236.096 191.498C236.096 191.99 235.959 192.451 235.686 192.881C235.412 193.311 235.025 193.631 234.525 193.842C234.025 194.049 233.402 194.152 232.656 194.152C231.57 194.152 230.736 193.902 230.154 193.402C229.572 192.898 229.225 192.166 229.111 191.205ZM237.115 191.205L238.803 191.041C238.904 191.607 239.109 192.023 239.418 192.289C239.73 192.555 240.15 192.688 240.678 192.688C241.236 192.688 241.656 192.57 241.938 192.336C242.223 192.098 242.365 191.82 242.365 191.504C242.365 191.301 242.305 191.129 242.184 190.988C242.066 190.844 241.859 190.719 241.562 190.613C241.359 190.543 240.896 190.418 240.174 190.238C239.244 190.008 238.592 189.725 238.217 189.389C237.689 188.916 237.426 188.34 237.426 187.66C237.426 187.223 237.549 186.814 237.795 186.436C238.045 186.053 238.402 185.762 238.867 185.562C239.336 185.363 239.9 185.264 240.561 185.264C241.639 185.264 242.449 185.5 242.992 185.973C243.539 186.445 243.826 187.076 243.854 187.865L242.119 187.941C242.045 187.5 241.885 187.184 241.639 186.992C241.396 186.797 241.031 186.699 240.543 186.699C240.039 186.699 239.645 186.803 239.359 187.01C239.176 187.143 239.084 187.32 239.084 187.543C239.084 187.746 239.17 187.92 239.342 188.064C239.561 188.248 240.092 188.439 240.936 188.639C241.779 188.838 242.402 189.045 242.805 189.26C243.211 189.471 243.527 189.762 243.754 190.133C243.984 190.5 244.1 190.955 244.1 191.498C244.1 191.99 243.963 192.451 243.689 192.881C243.416 193.311 243.029 193.631 242.529 193.842C242.029 194.049 241.406 194.152 240.66 194.152C239.574 194.152 238.74 193.902 238.158 193.402C237.576 192.898 237.229 192.166 237.115 191.205ZM181.193 209V200.41H184.844C185.762 200.41 186.428 200.488 186.842 200.645C187.26 200.797 187.594 201.07 187.844 201.465C188.094 201.859 188.219 202.311 188.219 202.818C188.219 203.463 188.029 203.996 187.65 204.418C187.271 204.836 186.705 205.1 185.951 205.209C186.326 205.428 186.635 205.668 186.877 205.93C187.123 206.191 187.453 206.656 187.867 207.324L188.916 209H186.842L185.588 207.131C185.143 206.463 184.838 206.043 184.674 205.871C184.51 205.695 184.336 205.576 184.152 205.514C183.969 205.447 183.678 205.414 183.279 205.414H182.928V209H181.193ZM182.928 204.043H184.211C185.043 204.043 185.562 204.008 185.77 203.938C185.977 203.867 186.139 203.746 186.256 203.574C186.373 203.402 186.432 203.188 186.432 202.93C186.432 202.641 186.354 202.408 186.197 202.232C186.045 202.053 185.828 201.939 185.547 201.893C185.406 201.873 184.984 201.863 184.281 201.863H182.928V204.043ZM189.859 209V200.41H196.229V201.863H191.594V203.768H195.906V205.215H191.594V207.553H196.393V209H189.859ZM197.424 206.205L199.111 206.041C199.213 206.607 199.418 207.023 199.727 207.289C200.039 207.555 200.459 207.688 200.986 207.688C201.545 207.688 201.965 207.57 202.246 207.336C202.531 207.098 202.674 206.82 202.674 206.504C202.674 206.301 202.613 206.129 202.492 205.988C202.375 205.844 202.168 205.719 201.871 205.613C201.668 205.543 201.205 205.418 200.482 205.238C199.553 205.008 198.9 204.725 198.525 204.389C197.998 203.916 197.734 203.34 197.734 202.66C197.734 202.223 197.857 201.814 198.104 201.436C198.354 201.053 198.711 200.762 199.176 200.562C199.645 200.363 200.209 200.264 200.869 200.264C201.947 200.264 202.758 200.5 203.301 200.973C203.848 201.445 204.135 202.076 204.162 202.865L202.428 202.941C202.354 202.5 202.193 202.184 201.947 201.992C201.705 201.797 201.34 201.699 200.852 201.699C200.348 201.699 199.953 201.803 199.668 202.01C199.484 202.143 199.393 202.32 199.393 202.543C199.393 202.746 199.479 202.92 199.65 203.064C199.869 203.248 200.4 203.439 201.244 203.639C202.088 203.838 202.711 204.045 203.113 204.26C203.52 204.471 203.836 204.762 204.062 205.133C204.293 205.5 204.408 205.955 204.408 206.498C204.408 206.99 204.271 207.451 203.998 207.881C203.725 208.311 203.338 208.631 202.838 208.842C202.338 209.049 201.715 209.152 200.969 209.152C199.883 209.152 199.049 208.902 198.467 208.402C197.885 207.898 197.537 207.166 197.424 206.205ZM205.867 209V200.41H212.236V201.863H207.602V203.768H211.914V205.215H207.602V207.553H212.4V209H205.867ZM221.617 209H219.73L218.98 207.049H215.547L214.838 209H212.998L216.344 200.41H218.178L221.617 209ZM218.424 205.602L217.24 202.414L216.08 205.602H218.424ZM222.549 209V200.41H226.199C227.117 200.41 227.783 200.488 228.197 200.645C228.615 200.797 228.949 201.07 229.199 201.465C229.449 201.859 229.574 202.311 229.574 202.818C229.574 203.463 229.385 203.996 229.006 204.418C228.627 204.836 228.061 205.1 227.307 205.209C227.682 205.428 227.99 205.668 228.232 205.93C228.479 206.191 228.809 206.656 229.223 207.324L230.271 209H228.197L226.943 207.131C226.498 206.463 226.193 206.043 226.029 205.871C225.865 205.695 225.691 205.576 225.508 205.514C225.324 205.447 225.033 205.414 224.635 205.414H224.283V209H222.549ZM224.283 204.043H225.566C226.398 204.043 226.918 204.008 227.125 203.938C227.332 203.867 227.494 203.746 227.611 203.574C227.729 203.402 227.787 203.188 227.787 202.93C227.787 202.641 227.709 202.408 227.553 202.232C227.4 202.053 227.184 201.939 226.902 201.893C226.762 201.873 226.34 201.863 225.637 201.863H224.283V204.043ZM236.711 205.842L238.393 206.375C238.135 207.312 237.705 208.01 237.104 208.467C236.506 208.92 235.746 209.146 234.824 209.146C233.684 209.146 232.746 208.758 232.012 207.98C231.277 207.199 230.91 206.133 230.91 204.781C230.91 203.352 231.279 202.242 232.018 201.453C232.756 200.66 233.727 200.264 234.93 200.264C235.98 200.264 236.834 200.574 237.49 201.195C237.881 201.562 238.174 202.09 238.369 202.777L236.652 203.188C236.551 202.742 236.338 202.391 236.014 202.133C235.693 201.875 235.303 201.746 234.842 201.746C234.205 201.746 233.688 201.975 233.289 202.432C232.895 202.889 232.697 203.629 232.697 204.652C232.697 205.738 232.893 206.512 233.283 206.973C233.674 207.434 234.182 207.664 234.807 207.664C235.268 207.664 235.664 207.518 235.996 207.225C236.328 206.932 236.566 206.471 236.711 205.842ZM239.893 209V200.41H241.627V203.791H245.025V200.41H246.76V209H245.025V205.244H241.627V209H239.893Z" fill="black"/>
</g>
<g filter="url(#filter2_d_108_207)">
<rect x="267" y="237" width="120" height="45" rx="14.5" fill="#BEB93E"/>
</g>
<g filter="url(#filter3_d_108_207)">
<path d="M276.229 264V255.41H277.963V264H276.229ZM279.615 255.41H282.785C283.5 255.41 284.045 255.465 284.42 255.574C284.924 255.723 285.355 255.986 285.715 256.365C286.074 256.744 286.348 257.209 286.535 257.76C286.723 258.307 286.816 258.982 286.816 259.787C286.816 260.494 286.729 261.104 286.553 261.615C286.338 262.24 286.031 262.746 285.633 263.133C285.332 263.426 284.926 263.654 284.414 263.818C284.031 263.939 283.52 264 282.879 264H279.615V255.41ZM281.35 256.863V262.553H282.645C283.129 262.553 283.479 262.525 283.693 262.471C283.975 262.4 284.207 262.281 284.391 262.113C284.578 261.945 284.73 261.67 284.848 261.287C284.965 260.9 285.023 260.375 285.023 259.711C285.023 259.047 284.965 258.537 284.848 258.182C284.73 257.826 284.566 257.549 284.355 257.35C284.145 257.15 283.877 257.016 283.553 256.945C283.311 256.891 282.836 256.863 282.129 256.863H281.35ZM288.293 264V255.41H294.662V256.863H290.027V258.768H294.34V260.215H290.027V262.553H294.826V264H288.293ZM304.043 264H302.156L301.406 262.049H297.973L297.264 264H295.424L298.77 255.41H300.604L304.043 264ZM300.85 260.602L299.666 257.414L298.506 260.602H300.85ZM310.055 264L306.984 255.41H308.865L311.039 261.768L313.143 255.41H314.982L311.906 264H310.055ZM322.723 264H320.836L320.086 262.049H316.652L315.943 264H314.104L317.449 255.41H319.283L322.723 264ZM319.529 260.602L318.346 257.414L317.186 260.602H319.529ZM323.695 264V255.48H325.43V262.553H329.742V264H323.695ZM330.932 264V255.41H332.666V264H330.932ZM334.318 255.41H337.488C338.203 255.41 338.748 255.465 339.123 255.574C339.627 255.723 340.059 255.986 340.418 256.365C340.777 256.744 341.051 257.209 341.238 257.76C341.426 258.307 341.52 258.982 341.52 259.787C341.52 260.494 341.432 261.104 341.256 261.615C341.041 262.24 340.734 262.746 340.336 263.133C340.035 263.426 339.629 263.654 339.117 263.818C338.734 263.939 338.223 264 337.582 264H334.318V255.41ZM336.053 256.863V262.553H337.348C337.832 262.553 338.182 262.525 338.396 262.471C338.678 262.4 338.91 262.281 339.094 262.113C339.281 261.945 339.434 261.67 339.551 261.287C339.668 260.9 339.727 260.375 339.727 259.711C339.727 259.047 339.668 258.537 339.551 258.182C339.434 257.826 339.27 257.549 339.059 257.35C338.848 257.15 338.58 257.016 338.256 256.945C338.014 256.891 337.539 256.863 336.832 256.863H336.053ZM350.742 264H348.855L348.105 262.049H344.672L343.963 264H342.123L345.469 255.41H347.303L350.742 264ZM347.549 260.602L346.365 257.414L345.205 260.602H347.549ZM352.711 264V256.863H350.162V255.41H356.988V256.863H354.445V264H352.711ZM358.061 264V255.41H359.795V264H358.061ZM361.102 259.758C361.102 258.883 361.232 258.148 361.494 257.555C361.689 257.117 361.955 256.725 362.291 256.377C362.631 256.029 363.002 255.771 363.404 255.604C363.939 255.377 364.557 255.264 365.256 255.264C366.521 255.264 367.533 255.656 368.291 256.441C369.053 257.227 369.434 258.318 369.434 259.717C369.434 261.104 369.057 262.189 368.303 262.975C367.549 263.756 366.541 264.146 365.279 264.146C364.002 264.146 362.986 263.758 362.232 262.98C361.479 262.199 361.102 261.125 361.102 259.758ZM362.889 259.699C362.889 260.672 363.113 261.41 363.562 261.914C364.012 262.414 364.582 262.664 365.273 262.664C365.965 262.664 366.531 262.416 366.973 261.92C367.418 261.42 367.641 260.672 367.641 259.676C367.641 258.691 367.424 257.957 366.99 257.473C366.561 256.988 365.988 256.746 365.273 256.746C364.559 256.746 363.982 256.992 363.545 257.484C363.107 257.973 362.889 258.711 362.889 259.699ZM370.811 264V255.41H372.498L376.014 261.146V255.41H377.625V264H375.885L372.422 258.398V264H370.811Z" fill="black"/>
</g>
<g filter="url(#filter4_d_108_207)">
<rect x="298" y="302" width="120" height="45" rx="14.5" fill="#BEB93E"/>
</g>
<g filter="url(#filter5_d_108_207)">
<path d="M306.83 320.41H308.564V325.062C308.564 325.801 308.586 326.279 308.629 326.498C308.703 326.85 308.879 327.133 309.156 327.348C309.438 327.559 309.82 327.664 310.305 327.664C310.797 327.664 311.168 327.564 311.418 327.365C311.668 327.162 311.818 326.914 311.869 326.621C311.92 326.328 311.945 325.842 311.945 325.162V320.41H313.68V324.922C313.68 325.953 313.633 326.682 313.539 327.107C313.445 327.533 313.271 327.893 313.018 328.186C312.768 328.479 312.432 328.713 312.01 328.889C311.588 329.061 311.037 329.146 310.357 329.146C309.537 329.146 308.914 329.053 308.488 328.865C308.066 328.674 307.732 328.428 307.486 328.127C307.24 327.822 307.078 327.504 307 327.172C306.887 326.68 306.83 325.953 306.83 324.992V320.41ZM315.074 326.205L316.762 326.041C316.863 326.607 317.068 327.023 317.377 327.289C317.689 327.555 318.109 327.688 318.637 327.688C319.195 327.688 319.615 327.57 319.896 327.336C320.182 327.098 320.324 326.82 320.324 326.504C320.324 326.301 320.264 326.129 320.143 325.988C320.025 325.844 319.818 325.719 319.521 325.613C319.318 325.543 318.855 325.418 318.133 325.238C317.203 325.008 316.551 324.725 316.176 324.389C315.648 323.916 315.385 323.34 315.385 322.66C315.385 322.223 315.508 321.814 315.754 321.436C316.004 321.053 316.361 320.762 316.826 320.562C317.295 320.363 317.859 320.264 318.52 320.264C319.598 320.264 320.408 320.5 320.951 320.973C321.498 321.445 321.785 322.076 321.812 322.865L320.078 322.941C320.004 322.5 319.844 322.184 319.598 321.992C319.355 321.797 318.99 321.699 318.502 321.699C317.998 321.699 317.604 321.803 317.318 322.01C317.135 322.143 317.043 322.32 317.043 322.543C317.043 322.746 317.129 322.92 317.301 323.064C317.52 323.248 318.051 323.439 318.895 323.639C319.738 323.838 320.361 324.045 320.764 324.26C321.17 324.471 321.486 324.762 321.713 325.133C321.943 325.5 322.059 325.955 322.059 326.498C322.059 326.99 321.922 327.451 321.648 327.881C321.375 328.311 320.988 328.631 320.488 328.842C319.988 329.049 319.365 329.152 318.619 329.152C317.533 329.152 316.699 328.902 316.117 328.402C315.535 327.898 315.188 327.166 315.074 326.205ZM323.518 329V320.41H329.887V321.863H325.252V323.768H329.564V325.215H325.252V327.553H330.051V329H323.518ZM331.527 329V320.41H335.178C336.096 320.41 336.762 320.488 337.176 320.645C337.594 320.797 337.928 321.07 338.178 321.465C338.428 321.859 338.553 322.311 338.553 322.818C338.553 323.463 338.363 323.996 337.984 324.418C337.605 324.836 337.039 325.1 336.285 325.209C336.66 325.428 336.969 325.668 337.211 325.93C337.457 326.191 337.787 326.656 338.201 327.324L339.25 329H337.176L335.922 327.131C335.477 326.463 335.172 326.043 335.008 325.871C334.844 325.695 334.67 325.576 334.486 325.514C334.303 325.447 334.012 325.414 333.613 325.414H333.262V329H331.527ZM333.262 324.043H334.545C335.377 324.043 335.896 324.008 336.104 323.938C336.311 323.867 336.473 323.746 336.59 323.574C336.707 323.402 336.766 323.188 336.766 322.93C336.766 322.641 336.688 322.408 336.531 322.232C336.379 322.053 336.162 321.939 335.881 321.893C335.74 321.873 335.318 321.863 334.615 321.863H333.262V324.043ZM343.539 329V320.41H347.189C348.107 320.41 348.773 320.488 349.188 320.645C349.605 320.797 349.939 321.07 350.189 321.465C350.439 321.859 350.564 322.311 350.564 322.818C350.564 323.463 350.375 323.996 349.996 324.418C349.617 324.836 349.051 325.1 348.297 325.209C348.672 325.428 348.98 325.668 349.223 325.93C349.469 326.191 349.799 326.656 350.213 327.324L351.262 329H349.188L347.934 327.131C347.488 326.463 347.184 326.043 347.02 325.871C346.855 325.695 346.682 325.576 346.498 325.514C346.314 325.447 346.023 325.414 345.625 325.414H345.273V329H343.539ZM345.273 324.043H346.557C347.389 324.043 347.908 324.008 348.115 323.938C348.322 323.867 348.484 323.746 348.602 323.574C348.719 323.402 348.777 323.188 348.777 322.93C348.777 322.641 348.699 322.408 348.543 322.232C348.391 322.053 348.174 321.939 347.893 321.893C347.752 321.873 347.33 321.863 346.627 321.863H345.273V324.043ZM352.205 329V320.41H358.574V321.863H353.939V323.768H358.252V325.215H353.939V327.553H358.738V329H352.205ZM359.77 326.205L361.457 326.041C361.559 326.607 361.764 327.023 362.072 327.289C362.385 327.555 362.805 327.688 363.332 327.688C363.891 327.688 364.311 327.57 364.592 327.336C364.877 327.098 365.02 326.82 365.02 326.504C365.02 326.301 364.959 326.129 364.838 325.988C364.721 325.844 364.514 325.719 364.217 325.613C364.014 325.543 363.551 325.418 362.828 325.238C361.898 325.008 361.246 324.725 360.871 324.389C360.344 323.916 360.08 323.34 360.08 322.66C360.08 322.223 360.203 321.814 360.449 321.436C360.699 321.053 361.057 320.762 361.521 320.562C361.99 320.363 362.555 320.264 363.215 320.264C364.293 320.264 365.104 320.5 365.646 320.973C366.193 321.445 366.48 322.076 366.508 322.865L364.773 322.941C364.699 322.5 364.539 322.184 364.293 321.992C364.051 321.797 363.686 321.699 363.197 321.699C362.693 321.699 362.299 321.803 362.014 322.01C361.83 322.143 361.738 322.32 361.738 322.543C361.738 322.746 361.824 322.92 361.996 323.064C362.215 323.248 362.746 323.439 363.59 323.639C364.434 323.838 365.057 324.045 365.459 324.26C365.865 324.471 366.182 324.762 366.408 325.133C366.639 325.5 366.754 325.955 366.754 326.498C366.754 326.99 366.617 327.451 366.344 327.881C366.07 328.311 365.684 328.631 365.184 328.842C364.684 329.049 364.061 329.152 363.314 329.152C362.229 329.152 361.395 328.902 360.812 328.402C360.23 327.898 359.883 327.166 359.77 326.205ZM368.213 329V320.41H374.582V321.863H369.947V323.768H374.26V325.215H369.947V327.553H374.746V329H368.213ZM383.963 329H382.076L381.326 327.049H377.893L377.184 329H375.344L378.689 320.41H380.523L383.963 329ZM380.77 325.602L379.586 322.414L378.426 325.602H380.77ZM384.895 329V320.41H388.545C389.463 320.41 390.129 320.488 390.543 320.645C390.961 320.797 391.295 321.07 391.545 321.465C391.795 321.859 391.92 322.311 391.92 322.818C391.92 323.463 391.73 323.996 391.352 324.418C390.973 324.836 390.406 325.1 389.652 325.209C390.027 325.428 390.336 325.668 390.578 325.93C390.824 326.191 391.154 326.656 391.568 327.324L392.617 329H390.543L389.289 327.131C388.844 326.463 388.539 326.043 388.375 325.871C388.211 325.695 388.037 325.576 387.854 325.514C387.67 325.447 387.379 325.414 386.98 325.414H386.629V329H384.895ZM386.629 324.043H387.912C388.744 324.043 389.264 324.008 389.471 323.938C389.678 323.867 389.84 323.746 389.957 323.574C390.074 323.402 390.133 323.188 390.133 322.93C390.133 322.641 390.055 322.408 389.898 322.232C389.746 322.053 389.529 321.939 389.248 321.893C389.107 321.873 388.686 321.863 387.982 321.863H386.629V324.043ZM399.057 325.842L400.738 326.375C400.48 327.312 400.051 328.01 399.449 328.467C398.852 328.92 398.092 329.146 397.17 329.146C396.029 329.146 395.092 328.758 394.357 327.98C393.623 327.199 393.256 326.133 393.256 324.781C393.256 323.352 393.625 322.242 394.363 321.453C395.102 320.66 396.072 320.264 397.275 320.264C398.326 320.264 399.18 320.574 399.836 321.195C400.227 321.562 400.52 322.09 400.715 322.777L398.998 323.188C398.896 322.742 398.684 322.391 398.359 322.133C398.039 321.875 397.648 321.746 397.188 321.746C396.551 321.746 396.033 321.975 395.635 322.432C395.24 322.889 395.043 323.629 395.043 324.652C395.043 325.738 395.238 326.512 395.629 326.973C396.02 327.434 396.527 327.664 397.152 327.664C397.613 327.664 398.01 327.518 398.342 327.225C398.674 326.932 398.912 326.471 399.057 325.842ZM402.238 329V320.41H403.973V323.791H407.371V320.41H409.105V329H407.371V325.244H403.973V329H402.238Z" fill="black"/>
</g>
<g filter="url(#filter6_d_108_207)">
<rect x="290" y="368" width="120" height="45" rx="14.5" fill="#BEB93E"/>
</g>
<g filter="url(#filter7_d_108_207)">
<path d="M299.826 386.41H301.561V391.062C301.561 391.801 301.582 392.279 301.625 392.498C301.699 392.85 301.875 393.133 302.152 393.348C302.434 393.559 302.816 393.664 303.301 393.664C303.793 393.664 304.164 393.564 304.414 393.365C304.664 393.162 304.814 392.914 304.865 392.621C304.916 392.328 304.941 391.842 304.941 391.162V386.41H306.676V390.922C306.676 391.953 306.629 392.682 306.535 393.107C306.441 393.533 306.268 393.893 306.014 394.186C305.764 394.479 305.428 394.713 305.006 394.889C304.584 395.061 304.033 395.146 303.354 395.146C302.533 395.146 301.91 395.053 301.484 394.865C301.062 394.674 300.729 394.428 300.482 394.127C300.236 393.822 300.074 393.504 299.996 393.172C299.883 392.68 299.826 391.953 299.826 390.992V386.41ZM308.07 392.205L309.758 392.041C309.859 392.607 310.064 393.023 310.373 393.289C310.686 393.555 311.105 393.688 311.633 393.688C312.191 393.688 312.611 393.57 312.893 393.336C313.178 393.098 313.32 392.82 313.32 392.504C313.32 392.301 313.26 392.129 313.139 391.988C313.021 391.844 312.814 391.719 312.518 391.613C312.314 391.543 311.852 391.418 311.129 391.238C310.199 391.008 309.547 390.725 309.172 390.389C308.645 389.916 308.381 389.34 308.381 388.66C308.381 388.223 308.504 387.814 308.75 387.436C309 387.053 309.357 386.762 309.822 386.562C310.291 386.363 310.855 386.264 311.516 386.264C312.594 386.264 313.404 386.5 313.947 386.973C314.494 387.445 314.781 388.076 314.809 388.865L313.074 388.941C313 388.5 312.84 388.184 312.594 387.992C312.352 387.797 311.986 387.699 311.498 387.699C310.994 387.699 310.6 387.803 310.314 388.01C310.131 388.143 310.039 388.32 310.039 388.543C310.039 388.746 310.125 388.92 310.297 389.064C310.516 389.248 311.047 389.439 311.891 389.639C312.734 389.838 313.357 390.045 313.76 390.26C314.166 390.471 314.482 390.762 314.709 391.133C314.939 391.5 315.055 391.955 315.055 392.498C315.055 392.99 314.918 393.451 314.645 393.881C314.371 394.311 313.984 394.631 313.484 394.842C312.984 395.049 312.361 395.152 311.615 395.152C310.529 395.152 309.695 394.902 309.113 394.402C308.531 393.898 308.184 393.166 308.07 392.205ZM316.514 395V386.41H322.883V387.863H318.248V389.768H322.561V391.215H318.248V393.553H323.047V395H316.514ZM324.523 395V386.41H328.174C329.092 386.41 329.758 386.488 330.172 386.645C330.59 386.797 330.924 387.07 331.174 387.465C331.424 387.859 331.549 388.311 331.549 388.818C331.549 389.463 331.359 389.996 330.98 390.418C330.602 390.836 330.035 391.1 329.281 391.209C329.656 391.428 329.965 391.668 330.207 391.93C330.453 392.191 330.783 392.656 331.197 393.324L332.246 395H330.172L328.918 393.131C328.473 392.463 328.168 392.043 328.004 391.871C327.84 391.695 327.666 391.576 327.482 391.514C327.299 391.447 327.008 391.414 326.609 391.414H326.258V395H324.523ZM326.258 390.043H327.541C328.373 390.043 328.893 390.008 329.1 389.938C329.307 389.867 329.469 389.746 329.586 389.574C329.703 389.402 329.762 389.188 329.762 388.93C329.762 388.641 329.684 388.408 329.527 388.232C329.375 388.053 329.158 387.939 328.877 387.893C328.736 387.873 328.314 387.863 327.611 387.863H326.258V390.043ZM336.529 395V386.41H339.312C340.367 386.41 341.055 386.453 341.375 386.539C341.867 386.668 342.279 386.949 342.611 387.383C342.943 387.812 343.109 388.369 343.109 389.053C343.109 389.58 343.014 390.023 342.822 390.383C342.631 390.742 342.387 391.025 342.09 391.232C341.797 391.436 341.498 391.57 341.193 391.637C340.779 391.719 340.18 391.76 339.395 391.76H338.264V395H336.529ZM338.264 387.863V390.301H339.213C339.896 390.301 340.354 390.256 340.584 390.166C340.814 390.076 340.994 389.936 341.123 389.744C341.256 389.553 341.322 389.33 341.322 389.076C341.322 388.764 341.23 388.506 341.047 388.303C340.863 388.1 340.631 387.973 340.35 387.922C340.143 387.883 339.727 387.863 339.102 387.863H338.264ZM344.539 395V386.41H348.189C349.107 386.41 349.773 386.488 350.188 386.645C350.605 386.797 350.939 387.07 351.189 387.465C351.439 387.859 351.564 388.311 351.564 388.818C351.564 389.463 351.375 389.996 350.996 390.418C350.617 390.836 350.051 391.1 349.297 391.209C349.672 391.428 349.98 391.668 350.223 391.93C350.469 392.191 350.799 392.656 351.213 393.324L352.262 395H350.188L348.934 393.131C348.488 392.463 348.184 392.043 348.02 391.871C347.855 391.695 347.682 391.576 347.498 391.514C347.314 391.447 347.023 391.414 346.625 391.414H346.273V395H344.539ZM346.273 390.043H347.557C348.389 390.043 348.908 390.008 349.115 389.938C349.322 389.867 349.484 389.746 349.602 389.574C349.719 389.402 349.777 389.188 349.777 388.93C349.777 388.641 349.699 388.408 349.543 388.232C349.391 388.053 349.174 387.939 348.893 387.893C348.752 387.873 348.33 387.863 347.627 387.863H346.273V390.043ZM352.854 390.758C352.854 389.883 352.984 389.148 353.246 388.555C353.441 388.117 353.707 387.725 354.043 387.377C354.383 387.029 354.754 386.771 355.156 386.604C355.691 386.377 356.309 386.264 357.008 386.264C358.273 386.264 359.285 386.656 360.043 387.441C360.805 388.227 361.186 389.318 361.186 390.717C361.186 392.104 360.809 393.189 360.055 393.975C359.301 394.756 358.293 395.146 357.031 395.146C355.754 395.146 354.738 394.758 353.984 393.98C353.23 393.199 352.854 392.125 352.854 390.758ZM354.641 390.699C354.641 391.672 354.865 392.41 355.314 392.914C355.764 393.414 356.334 393.664 357.025 393.664C357.717 393.664 358.283 393.416 358.725 392.92C359.17 392.42 359.393 391.672 359.393 390.676C359.393 389.691 359.176 388.957 358.742 388.473C358.312 387.988 357.74 387.746 357.025 387.746C356.311 387.746 355.734 387.992 355.297 388.484C354.859 388.973 354.641 389.711 354.641 390.699ZM362.557 395V386.41H368.445V387.863H364.291V389.896H367.877V391.35H364.291V395H362.557ZM369.828 395V386.41H371.562V395H369.828ZM373.268 395V386.48H375.002V393.553H379.314V395H373.268ZM380.504 395V386.41H382.238V395H380.504ZM383.914 395V386.41H385.602L389.117 392.146V386.41H390.729V395H388.988L385.525 389.398V395H383.914ZM396.564 391.842V390.395H400.303V393.816C399.939 394.168 399.412 394.479 398.721 394.748C398.033 395.014 397.336 395.146 396.629 395.146C395.73 395.146 394.947 394.959 394.279 394.584C393.611 394.205 393.109 393.666 392.773 392.967C392.438 392.264 392.27 391.5 392.27 390.676C392.27 389.781 392.457 388.986 392.832 388.291C393.207 387.596 393.756 387.062 394.479 386.691C395.029 386.406 395.715 386.264 396.535 386.264C397.602 386.264 398.434 386.488 399.031 386.938C399.633 387.383 400.02 388 400.191 388.789L398.469 389.111C398.348 388.689 398.119 388.357 397.783 388.115C397.451 387.869 397.035 387.746 396.535 387.746C395.777 387.746 395.174 387.986 394.725 388.467C394.279 388.947 394.057 389.66 394.057 390.605C394.057 391.625 394.283 392.391 394.736 392.902C395.189 393.41 395.783 393.664 396.518 393.664C396.881 393.664 397.244 393.594 397.607 393.453C397.975 393.309 398.289 393.135 398.551 392.932V391.842H396.564Z" fill="black"/>
</g>
<g filter="url(#filter8_d_108_207)">
<rect x="265" y="433" width="120" height="45" rx="14.5" fill="#BEB93E"/>
</g>
<g filter="url(#filter9_d_108_207)">
<path d="M278.494 451.41H280.229V456.062C280.229 456.801 280.25 457.279 280.293 457.498C280.367 457.85 280.543 458.133 280.82 458.348C281.102 458.559 281.484 458.664 281.969 458.664C282.461 458.664 282.832 458.564 283.082 458.365C283.332 458.162 283.482 457.914 283.533 457.621C283.584 457.328 283.609 456.842 283.609 456.162V451.41H285.344V455.922C285.344 456.953 285.297 457.682 285.203 458.107C285.109 458.533 284.936 458.893 284.682 459.186C284.432 459.479 284.096 459.713 283.674 459.889C283.252 460.061 282.701 460.146 282.021 460.146C281.201 460.146 280.578 460.053 280.152 459.865C279.73 459.674 279.396 459.428 279.15 459.127C278.904 458.822 278.742 458.504 278.664 458.172C278.551 457.68 278.494 456.953 278.494 455.992V451.41ZM286.738 457.205L288.426 457.041C288.527 457.607 288.732 458.023 289.041 458.289C289.354 458.555 289.773 458.688 290.301 458.688C290.859 458.688 291.279 458.57 291.561 458.336C291.846 458.098 291.988 457.82 291.988 457.504C291.988 457.301 291.928 457.129 291.807 456.988C291.689 456.844 291.482 456.719 291.186 456.613C290.982 456.543 290.52 456.418 289.797 456.238C288.867 456.008 288.215 455.725 287.84 455.389C287.312 454.916 287.049 454.34 287.049 453.66C287.049 453.223 287.172 452.814 287.418 452.436C287.668 452.053 288.025 451.762 288.49 451.562C288.959 451.363 289.523 451.264 290.184 451.264C291.262 451.264 292.072 451.5 292.615 451.973C293.162 452.445 293.449 453.076 293.477 453.865L291.742 453.941C291.668 453.5 291.508 453.184 291.262 452.992C291.02 452.797 290.654 452.699 290.166 452.699C289.662 452.699 289.268 452.803 288.982 453.01C288.799 453.143 288.707 453.32 288.707 453.543C288.707 453.746 288.793 453.92 288.965 454.064C289.184 454.248 289.715 454.439 290.559 454.639C291.402 454.838 292.025 455.045 292.428 455.26C292.834 455.471 293.15 455.762 293.377 456.133C293.607 456.5 293.723 456.955 293.723 457.498C293.723 457.99 293.586 458.451 293.312 458.881C293.039 459.311 292.652 459.631 292.152 459.842C291.652 460.049 291.029 460.152 290.283 460.152C289.197 460.152 288.363 459.902 287.781 459.402C287.199 458.898 286.852 458.166 286.738 457.205ZM295.182 460V451.41H301.551V452.863H296.916V454.768H301.229V456.215H296.916V458.553H301.715V460H295.182ZM303.191 460V451.41H306.842C307.76 451.41 308.426 451.488 308.84 451.645C309.258 451.797 309.592 452.07 309.842 452.465C310.092 452.859 310.217 453.311 310.217 453.818C310.217 454.463 310.027 454.996 309.648 455.418C309.27 455.836 308.703 456.1 307.949 456.209C308.324 456.428 308.633 456.668 308.875 456.93C309.121 457.191 309.451 457.656 309.865 458.324L310.914 460H308.84L307.586 458.131C307.141 457.463 306.836 457.043 306.672 456.871C306.508 456.695 306.334 456.576 306.15 456.514C305.967 456.447 305.676 456.414 305.277 456.414H304.926V460H303.191ZM304.926 455.043H306.209C307.041 455.043 307.561 455.008 307.768 454.938C307.975 454.867 308.137 454.746 308.254 454.574C308.371 454.402 308.43 454.188 308.43 453.93C308.43 453.641 308.352 453.408 308.195 453.232C308.043 453.053 307.826 452.939 307.545 452.893C307.404 452.873 306.982 452.863 306.279 452.863H304.926V455.043ZM318.297 451.41H320.025V456.848C320.025 457.559 319.963 458.105 319.838 458.488C319.67 458.988 319.365 459.391 318.924 459.695C318.482 459.996 317.9 460.146 317.178 460.146C316.33 460.146 315.678 459.91 315.221 459.438C314.764 458.961 314.533 458.264 314.529 457.346L316.164 457.158C316.184 457.65 316.256 457.998 316.381 458.201C316.568 458.51 316.854 458.664 317.236 458.664C317.623 458.664 317.896 458.555 318.057 458.336C318.217 458.113 318.297 457.654 318.297 456.959V451.41ZM321.525 455.758C321.525 454.883 321.656 454.148 321.918 453.555C322.113 453.117 322.379 452.725 322.715 452.377C323.055 452.029 323.426 451.771 323.828 451.604C324.363 451.377 324.98 451.264 325.68 451.264C326.945 451.264 327.957 451.656 328.715 452.441C329.477 453.227 329.857 454.318 329.857 455.717C329.857 457.104 329.48 458.189 328.727 458.975C327.973 459.756 326.965 460.146 325.703 460.146C324.426 460.146 323.41 459.758 322.656 458.98C321.902 458.199 321.525 457.125 321.525 455.758ZM323.312 455.699C323.312 456.672 323.537 457.41 323.986 457.914C324.436 458.414 325.006 458.664 325.697 458.664C326.389 458.664 326.955 458.416 327.396 457.92C327.842 457.42 328.064 456.672 328.064 455.676C328.064 454.691 327.848 453.957 327.414 453.473C326.984 452.988 326.412 452.746 325.697 452.746C324.982 452.746 324.406 452.992 323.969 453.484C323.531 453.973 323.312 454.711 323.312 455.699ZM331.205 451.41H332.939V456.062C332.939 456.801 332.961 457.279 333.004 457.498C333.078 457.85 333.254 458.133 333.531 458.348C333.812 458.559 334.195 458.664 334.68 458.664C335.172 458.664 335.543 458.564 335.793 458.365C336.043 458.162 336.193 457.914 336.244 457.621C336.295 457.328 336.32 456.842 336.32 456.162V451.41H338.055V455.922C338.055 456.953 338.008 457.682 337.914 458.107C337.82 458.533 337.646 458.893 337.393 459.186C337.143 459.479 336.807 459.713 336.385 459.889C335.963 460.061 335.412 460.146 334.732 460.146C333.912 460.146 333.289 460.053 332.863 459.865C332.441 459.674 332.107 459.428 331.861 459.127C331.615 458.822 331.453 458.504 331.375 458.172C331.262 457.68 331.205 456.953 331.205 455.992V451.41ZM339.895 460V451.41H343.545C344.463 451.41 345.129 451.488 345.543 451.645C345.961 451.797 346.295 452.07 346.545 452.465C346.795 452.859 346.92 453.311 346.92 453.818C346.92 454.463 346.73 454.996 346.352 455.418C345.973 455.836 345.406 456.1 344.652 456.209C345.027 456.428 345.336 456.668 345.578 456.93C345.824 457.191 346.154 457.656 346.568 458.324L347.617 460H345.543L344.289 458.131C343.844 457.463 343.539 457.043 343.375 456.871C343.211 456.695 343.037 456.576 342.854 456.514C342.67 456.447 342.379 456.414 341.98 456.414H341.629V460H339.895ZM341.629 455.043H342.912C343.744 455.043 344.264 455.008 344.471 454.938C344.678 454.867 344.84 454.746 344.957 454.574C345.074 454.402 345.133 454.188 345.133 453.93C345.133 453.641 345.055 453.408 344.898 453.232C344.746 453.053 344.529 452.939 344.248 452.893C344.107 452.873 343.686 452.863 342.982 452.863H341.629V455.043ZM348.578 460V451.41H350.266L353.781 457.146V451.41H355.393V460H353.652L350.189 454.398V460H348.578ZM357.232 460V451.41H363.602V452.863H358.967V454.768H363.279V456.215H358.967V458.553H363.766V460H357.232ZM367.492 460V456.385L364.346 451.41H366.379L368.4 454.809L370.381 451.41H372.379L369.221 456.396V460H367.492Z" fill="black"/>
</g>
<g filter="url(#filter10_d_108_207)">
<rect x="154" y="493" width="120" height="45" rx="14.5" fill="#BEB93E"/>
</g>
<g filter="url(#filter11_d_108_207)">
<path d="M182.91 512V503.41H184.645V512H182.91ZM186.297 503.41H189.467C190.182 503.41 190.727 503.465 191.102 503.574C191.605 503.723 192.037 503.986 192.396 504.365C192.756 504.744 193.029 505.209 193.217 505.76C193.404 506.307 193.498 506.982 193.498 507.787C193.498 508.494 193.41 509.104 193.234 509.615C193.02 510.24 192.713 510.746 192.314 511.133C192.014 511.426 191.607 511.654 191.096 511.818C190.713 511.939 190.201 512 189.561 512H186.297V503.41ZM188.031 504.863V510.553H189.326C189.811 510.553 190.16 510.525 190.375 510.471C190.656 510.4 190.889 510.281 191.072 510.113C191.26 509.945 191.412 509.67 191.529 509.287C191.646 508.9 191.705 508.375 191.705 507.711C191.705 507.047 191.646 506.537 191.529 506.182C191.412 505.826 191.248 505.549 191.037 505.35C190.826 505.15 190.559 505.016 190.234 504.945C189.992 504.891 189.518 504.863 188.811 504.863H188.031ZM194.975 512V503.41H201.344V504.863H196.709V506.768H201.021V508.215H196.709V510.553H201.508V512H194.975ZM210.725 512H208.838L208.088 510.049H204.654L203.945 512H202.105L205.451 503.41H207.285L210.725 512ZM207.531 508.602L206.348 505.414L205.188 508.602H207.531ZM212.693 512V504.863H210.145V503.41H216.971V504.863H214.428V512H212.693ZM218.043 512V503.41H219.777V512H218.043ZM221.084 507.758C221.084 506.883 221.215 506.148 221.477 505.555C221.672 505.117 221.938 504.725 222.273 504.377C222.613 504.029 222.984 503.771 223.387 503.604C223.922 503.377 224.539 503.264 225.238 503.264C226.504 503.264 227.516 503.656 228.273 504.441C229.035 505.227 229.416 506.318 229.416 507.717C229.416 509.104 229.039 510.189 228.285 510.975C227.531 511.756 226.523 512.146 225.262 512.146C223.984 512.146 222.969 511.758 222.215 510.98C221.461 510.199 221.084 509.125 221.084 507.758ZM222.871 507.699C222.871 508.672 223.096 509.41 223.545 509.914C223.994 510.414 224.564 510.664 225.256 510.664C225.947 510.664 226.514 510.416 226.955 509.92C227.4 509.42 227.623 508.672 227.623 507.676C227.623 506.691 227.406 505.957 226.973 505.473C226.543 504.988 225.971 504.746 225.256 504.746C224.541 504.746 223.965 504.992 223.527 505.484C223.09 505.973 222.871 506.711 222.871 507.699ZM230.793 512V503.41H232.48L235.996 509.146V503.41H237.607V512H235.867L232.404 506.398V512H230.793ZM242.588 509.709V508.062H245.822V509.709H242.588ZM179.078 524.205L180.766 524.041C180.867 524.607 181.072 525.023 181.381 525.289C181.693 525.555 182.113 525.688 182.641 525.688C183.199 525.688 183.619 525.57 183.9 525.336C184.186 525.098 184.328 524.82 184.328 524.504C184.328 524.301 184.268 524.129 184.146 523.988C184.029 523.844 183.822 523.719 183.525 523.613C183.322 523.543 182.859 523.418 182.137 523.238C181.207 523.008 180.555 522.725 180.18 522.389C179.652 521.916 179.389 521.34 179.389 520.66C179.389 520.223 179.512 519.814 179.758 519.436C180.008 519.053 180.365 518.762 180.83 518.562C181.299 518.363 181.863 518.264 182.523 518.264C183.602 518.264 184.412 518.5 184.955 518.973C185.502 519.445 185.789 520.076 185.816 520.865L184.082 520.941C184.008 520.5 183.848 520.184 183.602 519.992C183.359 519.797 182.994 519.699 182.506 519.699C182.002 519.699 181.607 519.803 181.322 520.01C181.139 520.143 181.047 520.32 181.047 520.543C181.047 520.746 181.133 520.92 181.305 521.064C181.523 521.248 182.055 521.439 182.898 521.639C183.742 521.838 184.365 522.045 184.768 522.26C185.174 522.471 185.49 522.762 185.717 523.133C185.947 523.5 186.062 523.955 186.062 524.498C186.062 524.99 185.926 525.451 185.652 525.881C185.379 526.311 184.992 526.631 184.492 526.842C183.992 527.049 183.369 527.152 182.623 527.152C181.537 527.152 180.703 526.902 180.121 526.402C179.539 525.898 179.191 525.166 179.078 524.205ZM187.545 527V518.41H189.279V522.225L192.783 518.41H195.115L191.881 521.756L195.291 527H193.047L190.686 522.969L189.279 524.404V527H187.545ZM196.193 527V518.41H202.562V519.863H197.928V521.768H202.24V523.215H197.928V525.553H202.727V527H196.193ZM206.131 527V519.863H203.582V518.41H210.408V519.863H207.865V527H206.131ZM217.029 523.842L218.711 524.375C218.453 525.312 218.023 526.01 217.422 526.467C216.824 526.92 216.064 527.146 215.143 527.146C214.002 527.146 213.064 526.758 212.33 525.98C211.596 525.199 211.229 524.133 211.229 522.781C211.229 521.352 211.598 520.242 212.336 519.453C213.074 518.66 214.045 518.264 215.248 518.264C216.299 518.264 217.152 518.574 217.809 519.195C218.199 519.562 218.492 520.09 218.688 520.777L216.971 521.188C216.869 520.742 216.656 520.391 216.332 520.133C216.012 519.875 215.621 519.746 215.16 519.746C214.523 519.746 214.006 519.975 213.607 520.432C213.213 520.889 213.016 521.629 213.016 522.652C213.016 523.738 213.211 524.512 213.602 524.973C213.992 525.434 214.5 525.664 215.125 525.664C215.586 525.664 215.982 525.518 216.314 525.225C216.646 524.932 216.885 524.471 217.029 523.842ZM220.211 527V518.41H221.945V521.791H225.344V518.41H227.078V527H225.344V523.244H221.945V527H220.211ZM228.824 527V518.41H230.559V527H228.824ZM232.234 527V518.41H233.922L237.438 524.146V518.41H239.049V527H237.309L233.846 521.398V527H232.234ZM244.885 523.842V522.395H248.623V525.816C248.26 526.168 247.732 526.479 247.041 526.748C246.354 527.014 245.656 527.146 244.949 527.146C244.051 527.146 243.268 526.959 242.6 526.584C241.932 526.205 241.43 525.666 241.094 524.967C240.758 524.264 240.59 523.5 240.59 522.676C240.59 521.781 240.777 520.986 241.152 520.291C241.527 519.596 242.076 519.062 242.799 518.691C243.35 518.406 244.035 518.264 244.855 518.264C245.922 518.264 246.754 518.488 247.352 518.938C247.953 519.383 248.34 520 248.512 520.789L246.789 521.111C246.668 520.689 246.439 520.357 246.104 520.115C245.771 519.869 245.355 519.746 244.855 519.746C244.098 519.746 243.494 519.986 243.045 520.467C242.6 520.947 242.377 521.66 242.377 522.605C242.377 523.625 242.604 524.391 243.057 524.902C243.51 525.41 244.104 525.664 244.838 525.664C245.201 525.664 245.564 525.594 245.928 525.453C246.295 525.309 246.609 525.135 246.871 524.932V523.842H244.885Z" fill="black"/>
</g>
<g filter="url(#filter12_d_108_207)">
<rect x="16" y="368" width="120" height="45" rx="14.5" fill="#BEB93E"/>
</g>
<g filter="url(#filter13_d_108_207)">
<path d="M17.5996 386.41H19.334V391.062C19.334 391.801 19.3555 392.279 19.3984 392.498C19.4727 392.85 19.6484 393.133 19.9258 393.348C20.207 393.559 20.5898 393.664 21.0742 393.664C21.5664 393.664 21.9375 393.564 22.1875 393.365C22.4375 393.162 22.5879 392.914 22.6387 392.621C22.6895 392.328 22.7148 391.842 22.7148 391.162V386.41H24.4492V390.922C24.4492 391.953 24.4023 392.682 24.3086 393.107C24.2148 393.533 24.041 393.893 23.7871 394.186C23.5371 394.479 23.2012 394.713 22.7793 394.889C22.3574 395.061 21.8066 395.146 21.127 395.146C20.3066 395.146 19.6836 395.053 19.2578 394.865C18.8359 394.674 18.502 394.428 18.2559 394.127C18.0098 393.822 17.8477 393.504 17.7695 393.172C17.6562 392.68 17.5996 391.953 17.5996 390.992V386.41ZM25.8438 392.205L27.5312 392.041C27.6328 392.607 27.8379 393.023 28.1465 393.289C28.459 393.555 28.8789 393.688 29.4062 393.688C29.9648 393.688 30.3848 393.57 30.666 393.336C30.9512 393.098 31.0938 392.82 31.0938 392.504C31.0938 392.301 31.0332 392.129 30.9121 391.988C30.7949 391.844 30.5879 391.719 30.291 391.613C30.0879 391.543 29.625 391.418 28.9023 391.238C27.9727 391.008 27.3203 390.725 26.9453 390.389C26.418 389.916 26.1543 389.34 26.1543 388.66C26.1543 388.223 26.2773 387.814 26.5234 387.436C26.7734 387.053 27.1309 386.762 27.5957 386.562C28.0645 386.363 28.6289 386.264 29.2891 386.264C30.3672 386.264 31.1777 386.5 31.7207 386.973C32.2676 387.445 32.5547 388.076 32.582 388.865L30.8477 388.941C30.7734 388.5 30.6133 388.184 30.3672 387.992C30.125 387.797 29.7598 387.699 29.2715 387.699C28.7676 387.699 28.373 387.803 28.0879 388.01C27.9043 388.143 27.8125 388.32 27.8125 388.543C27.8125 388.746 27.8984 388.92 28.0703 389.064C28.2891 389.248 28.8203 389.439 29.6641 389.639C30.5078 389.838 31.1309 390.045 31.5332 390.26C31.9395 390.471 32.2559 390.762 32.4824 391.133C32.7129 391.5 32.8281 391.955 32.8281 392.498C32.8281 392.99 32.6914 393.451 32.418 393.881C32.1445 394.311 31.7578 394.631 31.2578 394.842C30.7578 395.049 30.1348 395.152 29.3887 395.152C28.3027 395.152 27.4688 394.902 26.8867 394.402C26.3047 393.898 25.957 393.166 25.8438 392.205ZM42.0332 395H40.1465L39.3965 393.049H35.9629L35.2539 395H33.4141L36.7598 386.41H38.5938L42.0332 395ZM38.8398 391.602L37.6562 388.414L36.4961 391.602H38.8398ZM42.9648 386.41H46.3984C47.0781 386.41 47.584 386.439 47.916 386.498C48.252 386.553 48.5508 386.67 48.8125 386.85C49.0781 387.029 49.2988 387.27 49.4746 387.57C49.6504 387.867 49.7383 388.201 49.7383 388.572C49.7383 388.975 49.6289 389.344 49.4102 389.68C49.1953 390.016 48.9023 390.268 48.5312 390.436C49.0547 390.588 49.457 390.848 49.7383 391.215C50.0195 391.582 50.1602 392.014 50.1602 392.51C50.1602 392.9 50.0684 393.281 49.8848 393.652C49.7051 394.02 49.457 394.314 49.1406 394.537C48.8281 394.756 48.4414 394.891 47.9805 394.941C47.6914 394.973 46.9941 394.992 45.8887 395H42.9648V386.41ZM44.6992 387.84V389.826H45.8359C46.5117 389.826 46.9316 389.816 47.0957 389.797C47.3926 389.762 47.625 389.66 47.793 389.492C47.9648 389.32 48.0508 389.096 48.0508 388.818C48.0508 388.553 47.9766 388.338 47.8281 388.174C47.6836 388.006 47.4668 387.904 47.1777 387.869C47.0059 387.85 46.5117 387.84 45.6953 387.84H44.6992ZM44.6992 391.256V393.553H46.3047C46.9297 393.553 47.3262 393.535 47.4941 393.5C47.752 393.453 47.9609 393.34 48.1211 393.16C48.2852 392.977 48.3672 392.732 48.3672 392.428C48.3672 392.17 48.3047 391.951 48.1797 391.771C48.0547 391.592 47.873 391.461 47.6348 391.379C47.4004 391.297 46.8887 391.256 46.0996 391.256H44.6992ZM51.5781 395V386.41H53.3125V395H51.5781ZM55.0176 395V386.48H56.752V393.553H61.0645V395H55.0176ZM62.2539 395V386.41H63.9883V395H62.2539ZM67.5801 395V387.863H65.0312V386.41H71.8574V387.863H69.3145V395H67.5801ZM75.2383 395V391.385L72.0918 386.41H74.125L76.1465 389.809L78.127 386.41H80.125L76.9668 391.396V395H75.2383ZM86.0371 395V387.863H83.4883V386.41H90.3145V387.863H87.7715V395H86.0371ZM91.4395 395V386.41H97.8086V387.863H93.1738V389.768H97.4863V391.215H93.1738V393.553H97.9727V395H91.4395ZM99.0039 392.205L100.691 392.041C100.793 392.607 100.998 393.023 101.307 393.289C101.619 393.555 102.039 393.688 102.566 393.688C103.125 393.688 103.545 393.57 103.826 393.336C104.111 393.098 104.254 392.82 104.254 392.504C104.254 392.301 104.193 392.129 104.072 391.988C103.955 391.844 103.748 391.719 103.451 391.613C103.248 391.543 102.785 391.418 102.062 391.238C101.133 391.008 100.48 390.725 100.105 390.389C99.5781 389.916 99.3145 389.34 99.3145 388.66C99.3145 388.223 99.4375 387.814 99.6836 387.436C99.9336 387.053 100.291 386.762 100.756 386.562C101.225 386.363 101.789 386.264 102.449 386.264C103.527 386.264 104.338 386.5 104.881 386.973C105.428 387.445 105.715 388.076 105.742 388.865L104.008 388.941C103.934 388.5 103.773 388.184 103.527 387.992C103.285 387.797 102.92 387.699 102.432 387.699C101.928 387.699 101.533 387.803 101.248 388.01C101.064 388.143 100.973 388.32 100.973 388.543C100.973 388.746 101.059 388.92 101.23 389.064C101.449 389.248 101.98 389.439 102.824 389.639C103.668 389.838 104.291 390.045 104.693 390.26C105.1 390.471 105.416 390.762 105.643 391.133C105.873 391.5 105.988 391.955 105.988 392.498C105.988 392.99 105.852 393.451 105.578 393.881C105.305 394.311 104.918 394.631 104.418 394.842C103.918 395.049 103.295 395.152 102.549 395.152C101.463 395.152 100.629 394.902 100.047 394.402C99.4648 393.898 99.1172 393.166 99.0039 392.205ZM109.381 395V387.863H106.832V386.41H113.658V387.863H111.115V395H109.381ZM114.73 395V386.41H116.465V395H114.73ZM118.141 395V386.41H119.828L123.344 392.146V386.41H124.955V395H123.215L119.752 389.398V395H118.141ZM130.791 391.842V390.395H134.529V393.816C134.166 394.168 133.639 394.479 132.947 394.748C132.26 395.014 131.562 395.146 130.855 395.146C129.957 395.146 129.174 394.959 128.506 394.584C127.838 394.205 127.336 393.666 127 392.967C126.664 392.264 126.496 391.5 126.496 390.676C126.496 389.781 126.684 388.986 127.059 388.291C127.434 387.596 127.982 387.062 128.705 386.691C129.256 386.406 129.941 386.264 130.762 386.264C131.828 386.264 132.66 386.488 133.258 386.938C133.859 387.383 134.246 388 134.418 388.789L132.695 389.111C132.574 388.689 132.346 388.357 132.01 388.115C131.678 387.869 131.262 387.746 130.762 387.746C130.004 387.746 129.4 387.986 128.951 388.467C128.506 388.947 128.283 389.66 128.283 390.605C128.283 391.625 128.51 392.391 128.963 392.902C129.416 393.41 130.01 393.664 130.744 393.664C131.107 393.664 131.471 393.594 131.834 393.453C132.201 393.309 132.516 393.135 132.777 392.932V391.842H130.791Z" fill="black"/>
</g>
<g filter="url(#filter14_d_108_207)">
<rect x="42" y="433" width="120" height="45" rx="14.5" fill="#BEB93E"/>
</g>
<g filter="url(#filter15_d_108_207)">
<path d="M50.666 460V451.48H52.4004V458.553H56.7129V460H50.666ZM57.6035 455.758C57.6035 454.883 57.7344 454.148 57.9961 453.555C58.1914 453.117 58.457 452.725 58.793 452.377C59.1328 452.029 59.5039 451.771 59.9062 451.604C60.4414 451.377 61.0586 451.264 61.7578 451.264C63.0234 451.264 64.0352 451.656 64.793 452.441C65.5547 453.227 65.9355 454.318 65.9355 455.717C65.9355 457.104 65.5586 458.189 64.8047 458.975C64.0508 459.756 63.043 460.146 61.7812 460.146C60.5039 460.146 59.4883 459.758 58.7344 458.98C57.9805 458.199 57.6035 457.125 57.6035 455.758ZM59.3906 455.699C59.3906 456.672 59.6152 457.41 60.0645 457.914C60.5137 458.414 61.084 458.664 61.7754 458.664C62.4668 458.664 63.0332 458.416 63.4746 457.92C63.9199 457.42 64.1426 456.672 64.1426 455.676C64.1426 454.691 63.9258 453.957 63.4922 453.473C63.0625 452.988 62.4902 452.746 61.7754 452.746C61.0605 452.746 60.4844 452.992 60.0469 453.484C59.6094 453.973 59.3906 454.711 59.3906 455.699ZM67.3066 460V451.41H73.1953V452.863H69.041V454.896H72.627V456.35H69.041V460H67.3066ZM74.5781 460V451.41H76.3125V460H74.5781ZM81.3105 460V451.41H84.0938C85.1484 451.41 85.8359 451.453 86.1562 451.539C86.6484 451.668 87.0605 451.949 87.3926 452.383C87.7246 452.812 87.8906 453.369 87.8906 454.053C87.8906 454.58 87.7949 455.023 87.6035 455.383C87.4121 455.742 87.168 456.025 86.8711 456.232C86.5781 456.436 86.2793 456.57 85.9746 456.637C85.5605 456.719 84.9609 456.76 84.1758 456.76H83.0449V460H81.3105ZM83.0449 452.863V455.301H83.9941C84.6777 455.301 85.1348 455.256 85.3652 455.166C85.5957 455.076 85.7754 454.936 85.9043 454.744C86.0371 454.553 86.1035 454.33 86.1035 454.076C86.1035 453.764 86.0117 453.506 85.8281 453.303C85.6445 453.1 85.4121 452.973 85.1309 452.922C84.9238 452.883 84.5078 452.863 83.8828 452.863H83.0449ZM89.3203 460V451.41H92.9707C93.8887 451.41 94.5547 451.488 94.9688 451.645C95.3867 451.797 95.7207 452.07 95.9707 452.465C96.2207 452.859 96.3457 453.311 96.3457 453.818C96.3457 454.463 96.1562 454.996 95.7773 455.418C95.3984 455.836 94.832 456.1 94.0781 456.209C94.4531 456.428 94.7617 456.668 95.0039 456.93C95.25 457.191 95.5801 457.656 95.9941 458.324L97.043 460H94.9688L93.7148 458.131C93.2695 457.463 92.9648 457.043 92.8008 456.871C92.6367 456.695 92.4629 456.576 92.2793 456.514C92.0957 456.447 91.8047 456.414 91.4062 456.414H91.0547V460H89.3203ZM91.0547 455.043H92.3379C93.1699 455.043 93.6895 455.008 93.8965 454.938C94.1035 454.867 94.2656 454.746 94.3828 454.574C94.5 454.402 94.5586 454.188 94.5586 453.93C94.5586 453.641 94.4805 453.408 94.3242 453.232C94.1719 453.053 93.9551 452.939 93.6738 452.893C93.5332 452.873 93.1113 452.863 92.4082 452.863H91.0547V455.043ZM97.6348 455.758C97.6348 454.883 97.7656 454.148 98.0273 453.555C98.2227 453.117 98.4883 452.725 98.8242 452.377C99.1641 452.029 99.5352 451.771 99.9375 451.604C100.473 451.377 101.09 451.264 101.789 451.264C103.055 451.264 104.066 451.656 104.824 452.441C105.586 453.227 105.967 454.318 105.967 455.717C105.967 457.104 105.59 458.189 104.836 458.975C104.082 459.756 103.074 460.146 101.812 460.146C100.535 460.146 99.5195 459.758 98.7656 458.98C98.0117 458.199 97.6348 457.125 97.6348 455.758ZM99.4219 455.699C99.4219 456.672 99.6465 457.41 100.096 457.914C100.545 458.414 101.115 458.664 101.807 458.664C102.498 458.664 103.064 458.416 103.506 457.92C103.951 457.42 104.174 456.672 104.174 455.676C104.174 454.691 103.957 453.957 103.523 453.473C103.094 452.988 102.521 452.746 101.807 452.746C101.092 452.746 100.516 452.992 100.078 453.484C99.6406 453.973 99.4219 454.711 99.4219 455.699ZM109.26 460V452.863H106.711V451.41H113.537V452.863H110.994V460H109.26ZM114.088 455.758C114.088 454.883 114.219 454.148 114.48 453.555C114.676 453.117 114.941 452.725 115.277 452.377C115.617 452.029 115.988 451.771 116.391 451.604C116.926 451.377 117.543 451.264 118.242 451.264C119.508 451.264 120.52 451.656 121.277 452.441C122.039 453.227 122.42 454.318 122.42 455.717C122.42 457.104 122.043 458.189 121.289 458.975C120.535 459.756 119.527 460.146 118.266 460.146C116.988 460.146 115.973 459.758 115.219 458.98C114.465 458.199 114.088 457.125 114.088 455.758ZM115.875 455.699C115.875 456.672 116.1 457.41 116.549 457.914C116.998 458.414 117.568 458.664 118.26 458.664C118.951 458.664 119.518 458.416 119.959 457.92C120.404 457.42 120.627 456.672 120.627 455.676C120.627 454.691 120.41 453.957 119.977 453.473C119.547 452.988 118.975 452.746 118.26 452.746C117.545 452.746 116.969 452.992 116.531 453.484C116.094 453.973 115.875 454.711 115.875 455.699ZM125.713 460V452.863H123.164V451.41H129.99V452.863H127.447V460H125.713ZM133.371 460V456.385L130.225 451.41H132.258L134.279 454.809L136.26 451.41H138.258L135.1 456.396V460H133.371ZM139.119 460V451.41H141.902C142.957 451.41 143.645 451.453 143.965 451.539C144.457 451.668 144.869 451.949 145.201 452.383C145.533 452.812 145.699 453.369 145.699 454.053C145.699 454.58 145.604 455.023 145.412 455.383C145.221 455.742 144.977 456.025 144.68 456.232C144.387 456.436 144.088 456.57 143.783 456.637C143.369 456.719 142.77 456.76 141.984 456.76H140.854V460H139.119ZM140.854 452.863V455.301H141.803C142.486 455.301 142.943 455.256 143.174 455.166C143.404 455.076 143.584 454.936 143.713 454.744C143.846 454.553 143.912 454.33 143.912 454.076C143.912 453.764 143.82 453.506 143.637 453.303C143.453 453.1 143.221 452.973 142.939 452.922C142.732 452.883 142.316 452.863 141.691 452.863H140.854ZM147.123 460V451.41H153.492V452.863H148.857V454.768H153.17V456.215H148.857V458.553H153.656V460H147.123Z" fill="black"/>
</g>
<g filter="url(#filter16_d_108_207)">
<rect x="10" y="302" width="120" height="45" rx="14.5" fill="#BEB93E"/>
</g>
<g filter="url(#filter17_d_108_207)">
<path d="M20.957 329V320.41H22.6914V323.791H26.0898V320.41H27.8242V329H26.0898V325.244H22.6914V329H20.957ZM29.5703 329V320.41H31.3047V329H29.5703ZM32.9746 329V320.41H38.8633V321.863H34.709V323.896H38.2949V325.35H34.709V329H32.9746ZM40.2461 329V320.41H41.9805V329H40.2461ZM46.9785 329V320.41H49.7617C50.8164 320.41 51.5039 320.453 51.8242 320.539C52.3164 320.668 52.7285 320.949 53.0605 321.383C53.3926 321.812 53.5586 322.369 53.5586 323.053C53.5586 323.58 53.4629 324.023 53.2715 324.383C53.0801 324.742 52.8359 325.025 52.5391 325.232C52.2461 325.436 51.9473 325.57 51.6426 325.637C51.2285 325.719 50.6289 325.76 49.8438 325.76H48.7129V329H46.9785ZM48.7129 321.863V324.301H49.6621C50.3457 324.301 50.8027 324.256 51.0332 324.166C51.2637 324.076 51.4434 323.936 51.5723 323.744C51.7051 323.553 51.7715 323.33 51.7715 323.076C51.7715 322.764 51.6797 322.506 51.4961 322.303C51.3125 322.1 51.0801 321.973 50.7988 321.922C50.5918 321.883 50.1758 321.863 49.5508 321.863H48.7129ZM54.9883 329V320.41H58.6387C59.5566 320.41 60.2227 320.488 60.6367 320.645C61.0547 320.797 61.3887 321.07 61.6387 321.465C61.8887 321.859 62.0137 322.311 62.0137 322.818C62.0137 323.463 61.8242 323.996 61.4453 324.418C61.0664 324.836 60.5 325.1 59.7461 325.209C60.1211 325.428 60.4297 325.668 60.6719 325.93C60.918 326.191 61.248 326.656 61.6621 327.324L62.7109 329H60.6367L59.3828 327.131C58.9375 326.463 58.6328 326.043 58.4688 325.871C58.3047 325.695 58.1309 325.576 57.9473 325.514C57.7637 325.447 57.4727 325.414 57.0742 325.414H56.7227V329H54.9883ZM56.7227 324.043H58.0059C58.8379 324.043 59.3574 324.008 59.5645 323.938C59.7715 323.867 59.9336 323.746 60.0508 323.574C60.168 323.402 60.2266 323.188 60.2266 322.93C60.2266 322.641 60.1484 322.408 59.9922 322.232C59.8398 322.053 59.623 321.939 59.3418 321.893C59.2012 321.873 58.7793 321.863 58.0762 321.863H56.7227V324.043ZM63.3027 324.758C63.3027 323.883 63.4336 323.148 63.6953 322.555C63.8906 322.117 64.1562 321.725 64.4922 321.377C64.832 321.029 65.2031 320.771 65.6055 320.604C66.1406 320.377 66.7578 320.264 67.457 320.264C68.7227 320.264 69.7344 320.656 70.4922 321.441C71.2539 322.227 71.6348 323.318 71.6348 324.717C71.6348 326.104 71.2578 327.189 70.5039 327.975C69.75 328.756 68.7422 329.146 67.4805 329.146C66.2031 329.146 65.1875 328.758 64.4336 327.98C63.6797 327.199 63.3027 326.125 63.3027 324.758ZM65.0898 324.699C65.0898 325.672 65.3145 326.41 65.7637 326.914C66.2129 327.414 66.7832 327.664 67.4746 327.664C68.166 327.664 68.7324 327.416 69.1738 326.92C69.6191 326.42 69.8418 325.672 69.8418 324.676C69.8418 323.691 69.625 322.957 69.1914 322.473C68.7617 321.988 68.1895 321.746 67.4746 321.746C66.7598 321.746 66.1836 321.992 65.7461 322.484C65.3086 322.973 65.0898 323.711 65.0898 324.699ZM74.9277 329V321.863H72.3789V320.41H79.2051V321.863H76.6621V329H74.9277ZM79.7559 324.758C79.7559 323.883 79.8867 323.148 80.1484 322.555C80.3438 322.117 80.6094 321.725 80.9453 321.377C81.2852 321.029 81.6562 320.771 82.0586 320.604C82.5938 320.377 83.2109 320.264 83.9102 320.264C85.1758 320.264 86.1875 320.656 86.9453 321.441C87.707 322.227 88.0879 323.318 88.0879 324.717C88.0879 326.104 87.7109 327.189 86.957 327.975C86.2031 328.756 85.1953 329.146 83.9336 329.146C82.6562 329.146 81.6406 328.758 80.8867 327.98C80.1328 327.199 79.7559 326.125 79.7559 324.758ZM81.543 324.699C81.543 325.672 81.7676 326.41 82.2168 326.914C82.666 327.414 83.2363 327.664 83.9277 327.664C84.6191 327.664 85.1855 327.416 85.627 326.92C86.0723 326.42 86.2949 325.672 86.2949 324.676C86.2949 323.691 86.0781 322.957 85.6445 322.473C85.2148 321.988 84.6426 321.746 83.9277 321.746C83.2129 321.746 82.6367 321.992 82.1992 322.484C81.7617 322.973 81.543 323.711 81.543 324.699ZM91.3809 329V321.863H88.832V320.41H95.6582V321.863H93.1152V329H91.3809ZM99.0391 329V325.385L95.8926 320.41H97.9258L99.9473 323.809L101.928 320.41H103.926L100.768 325.396V329H99.0391ZM104.787 329V320.41H107.57C108.625 320.41 109.312 320.453 109.633 320.539C110.125 320.668 110.537 320.949 110.869 321.383C111.201 321.812 111.367 322.369 111.367 323.053C111.367 323.58 111.271 324.023 111.08 324.383C110.889 324.742 110.645 325.025 110.348 325.232C110.055 325.436 109.756 325.57 109.451 325.637C109.037 325.719 108.438 325.76 107.652 325.76H106.521V329H104.787ZM106.521 321.863V324.301H107.471C108.154 324.301 108.611 324.256 108.842 324.166C109.072 324.076 109.252 323.936 109.381 323.744C109.514 323.553 109.58 323.33 109.58 323.076C109.58 322.764 109.488 322.506 109.305 322.303C109.121 322.1 108.889 321.973 108.607 321.922C108.4 321.883 107.984 321.863 107.359 321.863H106.521ZM112.791 329V320.41H119.16V321.863H114.525V323.768H118.838V325.215H114.525V327.553H119.324V329H112.791Z" fill="black"/>
</g>
<g filter="url(#filter18_d_108_207)">
<rect x="44" y="237" width="120" height="45" rx="14.5" fill="#BEB93E"/>
</g>
<g filter="url(#filter19_d_108_207)">
<path d="M45.5996 255.41H47.334V260.062C47.334 260.801 47.3555 261.279 47.3984 261.498C47.4727 261.85 47.6484 262.133 47.9258 262.348C48.207 262.559 48.5898 262.664 49.0742 262.664C49.5664 262.664 49.9375 262.564 50.1875 262.365C50.4375 262.162 50.5879 261.914 50.6387 261.621C50.6895 261.328 50.7148 260.842 50.7148 260.162V255.41H52.4492V259.922C52.4492 260.953 52.4023 261.682 52.3086 262.107C52.2148 262.533 52.041 262.893 51.7871 263.186C51.5371 263.479 51.2012 263.713 50.7793 263.889C50.3574 264.061 49.8066 264.146 49.127 264.146C48.3066 264.146 47.6836 264.053 47.2578 263.865C46.8359 263.674 46.502 263.428 46.2559 263.127C46.0098 262.822 45.8477 262.504 45.7695 262.172C45.6562 261.68 45.5996 260.953 45.5996 259.992V255.41ZM53.8438 261.205L55.5312 261.041C55.6328 261.607 55.8379 262.023 56.1465 262.289C56.459 262.555 56.8789 262.688 57.4062 262.688C57.9648 262.688 58.3848 262.57 58.666 262.336C58.9512 262.098 59.0938 261.82 59.0938 261.504C59.0938 261.301 59.0332 261.129 58.9121 260.988C58.7949 260.844 58.5879 260.719 58.291 260.613C58.0879 260.543 57.625 260.418 56.9023 260.238C55.9727 260.008 55.3203 259.725 54.9453 259.389C54.418 258.916 54.1543 258.34 54.1543 257.66C54.1543 257.223 54.2773 256.814 54.5234 256.436C54.7734 256.053 55.1309 255.762 55.5957 255.562C56.0645 255.363 56.6289 255.264 57.2891 255.264C58.3672 255.264 59.1777 255.5 59.7207 255.973C60.2676 256.445 60.5547 257.076 60.582 257.865L58.8477 257.941C58.7734 257.5 58.6133 257.184 58.3672 256.992C58.125 256.797 57.7598 256.699 57.2715 256.699C56.7676 256.699 56.373 256.803 56.0879 257.01C55.9043 257.143 55.8125 257.32 55.8125 257.543C55.8125 257.746 55.8984 257.92 56.0703 258.064C56.2891 258.248 56.8203 258.439 57.6641 258.639C58.5078 258.838 59.1309 259.045 59.5332 259.26C59.9395 259.471 60.2559 259.762 60.4824 260.133C60.7129 260.5 60.8281 260.955 60.8281 261.498C60.8281 261.99 60.6914 262.451 60.418 262.881C60.1445 263.311 59.7578 263.631 59.2578 263.842C58.7578 264.049 58.1348 264.152 57.3887 264.152C56.3027 264.152 55.4688 263.902 54.8867 263.402C54.3047 262.898 53.957 262.166 53.8438 261.205ZM70.0332 264H68.1465L67.3965 262.049H63.9629L63.2539 264H61.4141L64.7598 255.41H66.5938L70.0332 264ZM66.8398 260.602L65.6562 257.414L64.4961 260.602H66.8398ZM70.9648 255.41H74.3984C75.0781 255.41 75.584 255.439 75.916 255.498C76.252 255.553 76.5508 255.67 76.8125 255.85C77.0781 256.029 77.2988 256.27 77.4746 256.57C77.6504 256.867 77.7383 257.201 77.7383 257.572C77.7383 257.975 77.6289 258.344 77.4102 258.68C77.1953 259.016 76.9023 259.268 76.5312 259.436C77.0547 259.588 77.457 259.848 77.7383 260.215C78.0195 260.582 78.1602 261.014 78.1602 261.51C78.1602 261.9 78.0684 262.281 77.8848 262.652C77.7051 263.02 77.457 263.314 77.1406 263.537C76.8281 263.756 76.4414 263.891 75.9805 263.941C75.6914 263.973 74.9941 263.992 73.8887 264H70.9648V255.41ZM72.6992 256.84V258.826H73.8359C74.5117 258.826 74.9316 258.816 75.0957 258.797C75.3926 258.762 75.625 258.66 75.793 258.492C75.9648 258.32 76.0508 258.096 76.0508 257.818C76.0508 257.553 75.9766 257.338 75.8281 257.174C75.6836 257.006 75.4668 256.904 75.1777 256.869C75.0059 256.85 74.5117 256.84 73.6953 256.84H72.6992ZM72.6992 260.256V262.553H74.3047C74.9297 262.553 75.3262 262.535 75.4941 262.5C75.752 262.453 75.9609 262.34 76.1211 262.16C76.2852 261.977 76.3672 261.732 76.3672 261.428C76.3672 261.17 76.3047 260.951 76.1797 260.771C76.0547 260.592 75.873 260.461 75.6348 260.379C75.4004 260.297 74.8887 260.256 74.0996 260.256H72.6992ZM79.5781 264V255.41H81.3125V264H79.5781ZM83.0176 264V255.48H84.752V262.553H89.0645V264H83.0176ZM90.2539 264V255.41H91.9883V264H90.2539ZM95.5801 264V256.863H93.0312V255.41H99.8574V256.863H97.3145V264H95.5801ZM103.238 264V260.385L100.092 255.41H102.125L104.146 258.809L106.127 255.41H108.125L104.967 260.396V264H103.238ZM114.037 264V256.863H111.488V255.41H118.314V256.863H115.771V264H114.037ZM119.439 264V255.41H125.809V256.863H121.174V258.768H125.486V260.215H121.174V262.553H125.973V264H119.439ZM127.004 261.205L128.691 261.041C128.793 261.607 128.998 262.023 129.307 262.289C129.619 262.555 130.039 262.688 130.566 262.688C131.125 262.688 131.545 262.57 131.826 262.336C132.111 262.098 132.254 261.82 132.254 261.504C132.254 261.301 132.193 261.129 132.072 260.988C131.955 260.844 131.748 260.719 131.451 260.613C131.248 260.543 130.785 260.418 130.062 260.238C129.133 260.008 128.48 259.725 128.105 259.389C127.578 258.916 127.314 258.34 127.314 257.66C127.314 257.223 127.438 256.814 127.684 256.436C127.934 256.053 128.291 255.762 128.756 255.562C129.225 255.363 129.789 255.264 130.449 255.264C131.527 255.264 132.338 255.5 132.881 255.973C133.428 256.445 133.715 257.076 133.742 257.865L132.008 257.941C131.934 257.5 131.773 257.184 131.527 256.992C131.285 256.797 130.92 256.699 130.432 256.699C129.928 256.699 129.533 256.803 129.248 257.01C129.064 257.143 128.973 257.32 128.973 257.543C128.973 257.746 129.059 257.92 129.23 258.064C129.449 258.248 129.98 258.439 130.824 258.639C131.668 258.838 132.291 259.045 132.693 259.26C133.1 259.471 133.416 259.762 133.643 260.133C133.873 260.5 133.988 260.955 133.988 261.498C133.988 261.99 133.852 262.451 133.578 262.881C133.305 263.311 132.918 263.631 132.418 263.842C131.918 264.049 131.295 264.152 130.549 264.152C129.463 264.152 128.629 263.902 128.047 263.402C127.465 262.898 127.117 262.166 127.004 261.205ZM137.381 264V256.863H134.832V255.41H141.658V256.863H139.115V264H137.381ZM142.73 264V255.41H144.465V264H142.73ZM146.141 264V255.41H147.828L151.344 261.146V255.41H152.955V264H151.215L147.752 258.398V264H146.141ZM158.791 260.842V259.395H162.529V262.816C162.166 263.168 161.639 263.479 160.947 263.748C160.26 264.014 159.562 264.146 158.855 264.146C157.957 264.146 157.174 263.959 156.506 263.584C155.838 263.205 155.336 262.666 155 261.967C154.664 261.264 154.496 260.5 154.496 259.676C154.496 258.781 154.684 257.986 155.059 257.291C155.434 256.596 155.982 256.062 156.705 255.691C157.256 255.406 157.941 255.264 158.762 255.264C159.828 255.264 160.66 255.488 161.258 255.938C161.859 256.383 162.246 257 162.418 257.789L160.695 258.111C160.574 257.689 160.346 257.357 160.01 257.115C159.678 256.869 159.262 256.746 158.762 256.746C158.004 256.746 157.4 256.986 156.951 257.467C156.506 257.947 156.283 258.66 156.283 259.605C156.283 260.625 156.51 261.391 156.963 261.902C157.416 262.41 158.01 262.664 158.744 262.664C159.107 262.664 159.471 262.594 159.834 262.453C160.201 262.309 160.516 262.135 160.777 261.932V260.842H158.791Z" fill="black"/>
</g>
<g clip-path="url(#clip0_108_207)">
<path d="M328.556 76.2502C309.565 58.5865 277.814 54.0788 246.978 55.9458C170.339 60.5152 110.545 109.856 89.1161 163.649C87.8833 166.685 93.2862 167.585 95.0427 164.781C122.45 114.531 171.14 70.7204 245.396 63.9018C314.608 57.8349 339.249 97.1041 349.19 140.61C350.196 145.234 360.14 143.07 359.133 138.446C354.697 115.885 346.952 93.3517 328.556 76.2502Z" fill="black"/>
<path d="M240.825 77.6979C207.184 81.9051 176.872 99.2274 151.437 117.218C136.676 127.696 106.61 150.501 112.012 166.623C112.299 167.945 114.631 167.784 115.771 166.498C138.535 129.713 183.291 96.1005 236.387 85.5833C295.431 74.1177 311.361 112.515 318.837 146.87C319.916 151.825 330.31 149.563 329.232 144.608C320.892 106.289 303.062 70.035 240.825 77.6979Z" fill="black"/>
<path d="M373.381 119.084C370.443 127.335 362.522 160.544 346.344 162.334C338.969 163.248 330.659 159.867 324.516 157.744C313.874 154.524 303.162 150.974 292.139 148.183C288.617 147.219 285.791 151.64 288.934 153.032C304.958 159.232 329.394 173.636 350.4 170.102C372.238 166.041 379.707 132.931 384.258 121.216C386.344 115.571 375.537 113.771 373.381 119.084Z" fill="black"/>
</g>
<defs>
<filter id="filter0_d_108_207" x="144" y="167" width="140" height="65" filterUnits="userSpaceOnUse" color-interpolation-filters="sRGB">
<feFlood flood-opacity="0" result="BackgroundImageFix"/>
<feColorMatrix in="SourceAlpha" type="matrix" values="0 0 0 0 0 0 0 0 0 0 0 0 0 0 0 0 0 0 127 0" result="hardAlpha"/>
<feOffset dy="2"/>
<feGaussianBlur stdDeviation="5"/>
<feColorMatrix type="matrix" values="0 0 0 0 0 0 0 0 0 0 0 0 0 0 0 0 0 0 0.251776 0"/>
<feBlend mode="normal" in2="BackgroundImageFix" result="effect1_dropShadow_108_207"/>
<feBlend mode="normal" in="SourceGraphic" in2="effect1_dropShadow_108_207" result="shape"/>
</filter>
<filter id="filter1_d_108_207" x="177.193" y="183.264" width="73.5664" height="31.8887" filterUnits="userSpaceOnUse" color-interpolation-filters="sRGB">
<feFlood flood-opacity="0" result="BackgroundImageFix"/>
<feColorMatrix in="SourceAlpha" type="matrix" values="0 0 0 0 0 0 0 0 0 0 0 0 0 0 0 0 0 0 127 0" result="hardAlpha"/>
<feOffset dy="2"/>
<feGaussianBlur stdDeviation="2"/>
<feColorMatrix type="matrix" values="0 0 0 0 0 0 0 0 0 0 0 0 0 0 0 0 0 0 0.1 0"/>
<feBlend mode="normal" in2="BackgroundImageFix" result="effect1_dropShadow_108_207"/>
<feBlend mode="normal" in="SourceGraphic" in2="effect1_dropShadow_108_207" result="shape"/>
</filter>
<filter id="filter2_d_108_207" x="257" y="229" width="140" height="65" filterUnits="userSpaceOnUse" color-interpolation-filters="sRGB">
<feFlood flood-opacity="0" result="BackgroundImageFix"/>
<feColorMatrix in="SourceAlpha" type="matrix" values="0 0 0 0 0 0 0 0 0 0 0 0 0 0 0 0 0 0 127 0" result="hardAlpha"/>
<feOffset dy="2"/>
<feGaussianBlur stdDeviation="5"/>
<feColorMatrix type="matrix" values="0 0 0 0 0 0 0 0 0 0 0 0 0 0 0 0 0 0 0.251776 0"/>
<feBlend mode="normal" in2="BackgroundImageFix" result="effect1_dropShadow_108_207"/>
<feBlend mode="normal" in="SourceGraphic" in2="effect1_dropShadow_108_207" result="shape"/>
</filter>
<filter id="filter3_d_108_207" x="272.229" y="253.264" width="109.396" height="16.8828" filterUnits="userSpaceOnUse" color-interpolation-filters="sRGB">
<feFlood flood-opacity="0" result="BackgroundImageFix"/>
<feColorMatrix in="SourceAlpha" type="matrix" values="0 0 0 0 0 0 0 0 0 0 0 0 0 0 0 0 0 0 127 0" result="hardAlpha"/>
<feOffset dy="2"/>
<feGaussianBlur stdDeviation="2"/>
<feColorMatrix type="matrix" values="0 0 0 0 0 0 0 0 0 0 0 0 0 0 0 0 0 0 0.1 0"/>
<feBlend mode="normal" in2="BackgroundImageFix" result="effect1_dropShadow_108_207"/>
<feBlend mode="normal" in="SourceGraphic" in2="effect1_dropShadow_108_207" result="shape"/>
</filter>
<filter id="filter4_d_108_207" x="288" y="294" width="140" height="65" filterUnits="userSpaceOnUse" color-interpolation-filters="sRGB">
<feFlood flood-opacity="0" result="BackgroundImageFix"/>
<feColorMatrix in="SourceAlpha" type="matrix" values="0 0 0 0 0 0 0 0 0 0 0 0 0 0 0 0 0 0 127 0" result="hardAlpha"/>
<feOffset dy="2"/>
<feGaussianBlur stdDeviation="5"/>
<feColorMatrix type="matrix" values="0 0 0 0 0 0 0 0 0 0 0 0 0 0 0 0 0 0 0.251776 0"/>
<feBlend mode="normal" in2="BackgroundImageFix" result="effect1_dropShadow_108_207"/>
<feBlend mode="normal" in="SourceGraphic" in2="effect1_dropShadow_108_207" result="shape"/>
</filter>
<filter id="filter5_d_108_207" x="302.83" y="318.264" width="110.275" height="16.8887" filterUnits="userSpaceOnUse" color-interpolation-filters="sRGB">
<feFlood flood-opacity="0" result="BackgroundImageFix"/>
<feColorMatrix in="SourceAlpha" type="matrix" values="0 0 0 0 0 0 0 0 0 0 0 0 0 0 0 0 0 0 127 0" result="hardAlpha"/>
<feOffset dy="2"/>
<feGaussianBlur stdDeviation="2"/>
<feColorMatrix type="matrix" values="0 0 0 0 0 0 0 0 0 0 0 0 0 0 0 0 0 0 0.1 0"/>
<feBlend mode="normal" in2="BackgroundImageFix" result="effect1_dropShadow_108_207"/>
<feBlend mode="normal" in="SourceGraphic" in2="effect1_dropShadow_108_207" result="shape"/>
</filter>
<filter id="filter6_d_108_207" x="280" y="360" width="140" height="65" filterUnits="userSpaceOnUse" color-interpolation-filters="sRGB">
<feFlood flood-opacity="0" result="BackgroundImageFix"/>
<feColorMatrix in="SourceAlpha" type="matrix" values="0 0 0 0 0 0 0 0 0 0 0 0 0 0 0 0 0 0 127 0" result="hardAlpha"/>
<feOffset dy="2"/>
<feGaussianBlur stdDeviation="5"/>
<feColorMatrix type="matrix" values="0 0 0 0 0 0 0 0 0 0 0 0 0 0 0 0 0 0 0.251776 0"/>
<feBlend mode="normal" in2="BackgroundImageFix" result="effect1_dropShadow_108_207"/>
<feBlend mode="normal" in="SourceGraphic" in2="effect1_dropShadow_108_207" result="shape"/>
</filter>
<filter id="filter7_d_108_207" x="295.826" y="384.264" width="108.477" height="16.8887" filterUnits="userSpaceOnUse" color-interpolation-filters="sRGB">
<feFlood flood-opacity="0" result="BackgroundImageFix"/>
<feColorMatrix in="SourceAlpha" type="matrix" values="0 0 0 0 0 0 0 0 0 0 0 0 0 0 0 0 0 0 127 0" result="hardAlpha"/>
<feOffset dy="2"/>
<feGaussianBlur stdDeviation="2"/>
<feColorMatrix type="matrix" values="0 0 0 0 0 0 0 0 0 0 0 0 0 0 0 0 0 0 0.1 0"/>
<feBlend mode="normal" in2="BackgroundImageFix" result="effect1_dropShadow_108_207"/>
<feBlend mode="normal" in="SourceGraphic" in2="effect1_dropShadow_108_207" result="shape"/>
</filter>
<filter id="filter8_d_108_207" x="255" y="425" width="140" height="65" filterUnits="userSpaceOnUse" color-interpolation-filters="sRGB">
<feFlood flood-opacity="0" result="BackgroundImageFix"/>
<feColorMatrix in="SourceAlpha" type="matrix" values="0 0 0 0 0 0 0 0 0 0 0 0 0 0 0 0 0 0 127 0" result="hardAlpha"/>
<feOffset dy="2"/>
<feGaussianBlur stdDeviation="5"/>
<feColorMatrix type="matrix" values="0 0 0 0 0 0 0 0 0 0 0 0 0 0 0 0 0 0 0.251776 0"/>
<feBlend mode="normal" in2="BackgroundImageFix" result="effect1_dropShadow_108_207"/>
<feBlend mode="normal" in="SourceGraphic" in2="effect1_dropShadow_108_207" result="shape"/>
</filter>
<filter id="filter9_d_108_207" x="274.494" y="449.264" width="101.885" height="16.8887" filterUnits="userSpaceOnUse" color-interpolation-filters="sRGB">
<feFlood flood-opacity="0" result="BackgroundImageFix"/>
<feColorMatrix in="SourceAlpha" type="matrix" values="0 0 0 0 0 0 0 0 0 0 0 0 0 0 0 0 0 0 127 0" result="hardAlpha"/>
<feOffset dy="2"/>
<feGaussianBlur stdDeviation="2"/>
<feColorMatrix type="matrix" values="0 0 0 0 0 0 0 0 0 0 0 0 0 0 0 0 0 0 0.1 0"/>
<feBlend mode="normal" in2="BackgroundImageFix" result="effect1_dropShadow_108_207"/>
<feBlend mode="normal" in="SourceGraphic" in2="effect1_dropShadow_108_207" result="shape"/>
</filter>
<filter id="filter10_d_108_207" x="144" y="485" width="140" height="65" filterUnits="userSpaceOnUse" color-interpolation-filters="sRGB">
<feFlood flood-opacity="0" result="BackgroundImageFix"/>
<feColorMatrix in="SourceAlpha" type="matrix" values="0 0 0 0 0 0 0 0 0 0 0 0 0 0 0 0 0 0 127 0" result="hardAlpha"/>
<feOffset dy="2"/>
<feGaussianBlur stdDeviation="5"/>
<feColorMatrix type="matrix" values="0 0 0 0 0 0 0 0 0 0 0 0 0 0 0 0 0 0 0.251776 0"/>
<feBlend mode="normal" in2="BackgroundImageFix" result="effect1_dropShadow_108_207"/>
<feBlend mode="normal" in="SourceGraphic" in2="effect1_dropShadow_108_207" result="shape"/>
</filter>
<filter id="filter11_d_108_207" x="175.078" y="501.264" width="77.5449" height="31.8887" filterUnits="userSpaceOnUse" color-interpolation-filters="sRGB">
<feFlood flood-opacity="0" result="BackgroundImageFix"/>
<feColorMatrix in="SourceAlpha" type="matrix" values="0 0 0 0 0 0 0 0 0 0 0 0 0 0 0 0 0 0 127 0" result="hardAlpha"/>
<feOffset dy="2"/>
<feGaussianBlur stdDeviation="2"/>
<feColorMatrix type="matrix" values="0 0 0 0 0 0 0 0 0 0 0 0 0 0 0 0 0 0 0.1 0"/>
<feBlend mode="normal" in2="BackgroundImageFix" result="effect1_dropShadow_108_207"/>
<feBlend mode="normal" in="SourceGraphic" in2="effect1_dropShadow_108_207" result="shape"/>
</filter>
<filter id="filter12_d_108_207" x="6" y="360" width="140" height="65" filterUnits="userSpaceOnUse" color-interpolation-filters="sRGB">
<feFlood flood-opacity="0" result="BackgroundImageFix"/>
<feColorMatrix in="SourceAlpha" type="matrix" values="0 0 0 0 0 0 0 0 0 0 0 0 0 0 0 0 0 0 127 0" result="hardAlpha"/>
<feOffset dy="2"/>
<feGaussianBlur stdDeviation="5"/>
<feColorMatrix type="matrix" values="0 0 0 0 0 0 0 0 0 0 0 0 0 0 0 0 0 0 0.251776 0"/>
<feBlend mode="normal" in2="BackgroundImageFix" result="effect1_dropShadow_108_207"/>
<feBlend mode="normal" in="SourceGraphic" in2="effect1_dropShadow_108_207" result="shape"/>
</filter>
<filter id="filter13_d_108_207" x="13.5996" y="384.264" width="124.93" height="16.8887" filterUnits="userSpaceOnUse" color-interpolation-filters="sRGB">
<feFlood flood-opacity="0" result="BackgroundImageFix"/>
<feColorMatrix in="SourceAlpha" type="matrix" values="0 0 0 0 0 0 0 0 0 0 0 0 0 0 0 0 0 0 127 0" result="hardAlpha"/>
<feOffset dy="2"/>
<feGaussianBlur stdDeviation="2"/>
<feColorMatrix type="matrix" values="0 0 0 0 0 0 0 0 0 0 0 0 0 0 0 0 0 0 0.1 0"/>
<feBlend mode="normal" in2="BackgroundImageFix" result="effect1_dropShadow_108_207"/>
<feBlend mode="normal" in="SourceGraphic" in2="effect1_dropShadow_108_207" result="shape"/>
</filter>
<filter id="filter14_d_108_207" x="32" y="425" width="140" height="65" filterUnits="userSpaceOnUse" color-interpolation-filters="sRGB">
<feFlood flood-opacity="0" result="BackgroundImageFix"/>
<feColorMatrix in="SourceAlpha" type="matrix" values="0 0 0 0 0 0 0 0 0 0 0 0 0 0 0 0 0 0 127 0" result="hardAlpha"/>
<feOffset dy="2"/>
<feGaussianBlur stdDeviation="5"/>
<feColorMatrix type="matrix" values="0 0 0 0 0 0 0 0 0 0 0 0 0 0 0 0 0 0 0.251776 0"/>
<feBlend mode="normal" in2="BackgroundImageFix" result="effect1_dropShadow_108_207"/>
<feBlend mode="normal" in="SourceGraphic" in2="effect1_dropShadow_108_207" result="shape"/>
</filter>
<filter id="filter15_d_108_207" x="46.666" y="449.264" width="110.99" height="16.8828" filterUnits="userSpaceOnUse" color-interpolation-filters="sRGB">
<feFlood flood-opacity="0" result="BackgroundImageFix"/>
<feColorMatrix in="SourceAlpha" type="matrix" values="0 0 0 0 0 0 0 0 0 0 0 0 0 0 0 0 0 0 127 0" result="hardAlpha"/>
<feOffset dy="2"/>
<feGaussianBlur stdDeviation="2"/>
<feColorMatrix type="matrix" values="0 0 0 0 0 0 0 0 0 0 0 0 0 0 0 0 0 0 0.1 0"/>
<feBlend mode="normal" in2="BackgroundImageFix" result="effect1_dropShadow_108_207"/>
<feBlend mode="normal" in="SourceGraphic" in2="effect1_dropShadow_108_207" result="shape"/>
</filter>
<filter id="filter16_d_108_207" x="0" y="294" width="140" height="65" filterUnits="userSpaceOnUse" color-interpolation-filters="sRGB">
<feFlood flood-opacity="0" result="BackgroundImageFix"/>
<feColorMatrix in="SourceAlpha" type="matrix" values="0 0 0 0 0 0 0 0 0 0 0 0 0 0 0 0 0 0 127 0" result="hardAlpha"/>
<feOffset dy="2"/>
<feGaussianBlur stdDeviation="5"/>
<feColorMatrix type="matrix" values="0 0 0 0 0 0 0 0 0 0 0 0 0 0 0 0 0 0 0.251776 0"/>
<feBlend mode="normal" in2="BackgroundImageFix" result="effect1_dropShadow_108_207"/>
<feBlend mode="normal" in="SourceGraphic" in2="effect1_dropShadow_108_207" result="shape"/>
</filter>
<filter id="filter17_d_108_207" x="16.957" y="318.264" width="106.367" height="16.8828" filterUnits="userSpaceOnUse" color-interpolation-filters="sRGB">
<feFlood flood-opacity="0" result="BackgroundImageFix"/>
<feColorMatrix in="SourceAlpha" type="matrix" values="0 0 0 0 0 0 0 0 0 0 0 0 0 0 0 0 0 0 127 0" result="hardAlpha"/>
<feOffset dy="2"/>
<feGaussianBlur stdDeviation="2"/>
<feColorMatrix type="matrix" values="0 0 0 0 0 0 0 0 0 0 0 0 0 0 0 0 0 0 0.1 0"/>
<feBlend mode="normal" in2="BackgroundImageFix" result="effect1_dropShadow_108_207"/>
<feBlend mode="normal" in="SourceGraphic" in2="effect1_dropShadow_108_207" result="shape"/>
</filter>
<filter id="filter18_d_108_207" x="34" y="229" width="140" height="65" filterUnits="userSpaceOnUse" color-interpolation-filters="sRGB">
<feFlood flood-opacity="0" result="BackgroundImageFix"/>
<feColorMatrix in="SourceAlpha" type="matrix" values="0 0 0 0 0 0 0 0 0 0 0 0 0 0 0 0 0 0 127 0" result="hardAlpha"/>
<feOffset dy="2"/>
<feGaussianBlur stdDeviation="5"/>
<feColorMatrix type="matrix" values="0 0 0 0 0 0 0 0 0 0 0 0 0 0 0 0 0 0 0.251776 0"/>
<feBlend mode="normal" in2="BackgroundImageFix" result="effect1_dropShadow_108_207"/>
<feBlend mode="normal" in="SourceGraphic" in2="effect1_dropShadow_108_207" result="shape"/>
</filter>
<filter id="filter19_d_108_207" x="41.5996" y="253.264" width="124.93" height="16.8887" filterUnits="userSpaceOnUse" color-interpolation-filters="sRGB">
<feFlood flood-opacity="0" result="BackgroundImageFix"/>
<feColorMatrix in="SourceAlpha" type="matrix" values="0 0 0 0 0 0 0 0 0 0 0 0 0 0 0 0 0 0 127 0" result="hardAlpha"/>
<feOffset dy="2"/>
<feGaussianBlur stdDeviation="2"/>
<feColorMatrix type="matrix" values="0 0 0 0 0 0 0 0 0 0 0 0 0 0 0 0 0 0 0.1 0"/>
<feBlend mode="normal" in2="BackgroundImageFix" result="effect1_dropShadow_108_207"/>
<feBlend mode="normal" in="SourceGraphic" in2="effect1_dropShadow_108_207" result="shape"/>
</filter>
<radialGradient id="paint0_angular_108_207" cx="0" cy="0" r="1" gradientUnits="userSpaceOnUse" gradientTransform="translate(214 354) rotate(180) scale(156)">
<stop offset="0.669288" stop-color="#E0E0E0" stop-opacity="0.400158"/>
<stop offset="0.75" stop-color="#FBFBFB" stop-opacity="0.101836"/>
</radialGradient>
<clipPath id="clip0_108_207">
<rect width="298.441" height="218.128" fill="white" transform="translate(56 63.4629) rotate(-12.2777)"/>
</clipPath>
</defs>
</svg>
